<svg width="845" height="736" viewBox="0 0 845 736" fill="none" xmlns="http://www.w3.org/2000/svg">
<path id="triangle_light" d="M398.381 21.1253C405.147 9.31333 408.53 3.40734 412.974 1.42618C416.849 -0.301872 421.284 -0.300709 425.176 1.42938C429.637 3.41288 433.075 9.32066 439.95 21.1362L834.504 699.232C841.379 711.047 844.817 716.955 844.33 721.802C843.905 726.03 841.705 729.87 838.277 732.368C834.347 735.231 827.526 735.229 813.885 735.226L30.998 735.021C17.3566 735.017 10.5358 735.015 6.57968 732.149C3.12898 729.65 0.893905 725.809 0.43014 721.581C-0.101552 716.733 3.28172 710.827 10.0483 699.015L398.381 21.1253Z" fill="#D3D3D3" fill-opacity="0.5"/>
</svg>
