<svg width="800" height="800" viewBox="0 0 800 800" fill="none" xmlns="http://www.w3.org/2000/svg">
<g clip-path="url(#clip0_46_73)">
<path d="M150.997 60.8216C158.796 40.8856 184.367 35.2991 199.769 50.1661L386.481 230.384C403.721 247.025 395.459 276.164 372.05 281.278L90.7948 342.724C67.3861 347.839 47.724 324.8 56.4536 302.486L150.997 60.8216Z" fill="#F59F0B" stroke="black"/>
<path d="M160.988 61.3808C168.787 41.4448 194.357 35.8583 209.76 50.7254L396.472 230.944C413.712 247.584 405.45 276.724 382.041 281.838L100.786 343.284C77.377 348.398 57.7149 325.359 66.4445 303.045L160.988 61.3808Z" fill="#F59F0B" stroke="black"/>
<path d="M172.005 60.5946C179.804 40.6585 205.375 35.072 220.778 49.9391L407.49 230.157C424.73 246.798 416.467 275.937 393.058 281.051L111.803 342.497C88.3944 347.612 68.7323 324.573 77.4619 302.259L172.005 60.5946Z" fill="#F59F0B" stroke="black"/>
<rect x="777.594" y="337.543" width="299" height="299" rx="29.5" transform="rotate(113.22 777.594 337.543)" fill="#D3D3D3" stroke="black"/>
<rect x="776.551" y="348.494" width="299" height="299" rx="29.5" transform="rotate(113.22 776.551 348.494)" fill="#D3D3D3" stroke="black"/>
<rect x="774.323" y="361.34" width="299" height="299" rx="29.5" transform="rotate(113.22 774.323 361.34)" fill="#D3D3D3" stroke="black"/>
<circle cx="187" cy="637" r="149.5" fill="#737373" stroke="black"/>
<circle cx="200" cy="637" r="149.5" fill="#737373" stroke="black"/>
<circle cx="211" cy="637" r="149.5" fill="#737373" stroke="black"/>
</g>
<defs>
<clipPath id="clip0_46_73">
<rect width="800" height="800" fill="white"/>
</clipPath>
</defs>
</svg>
