<svg xmlns="http://www.w3.org/2000/svg" xmlns:xlink="http://www.w3.org/1999/xlink" width="500" zoomAndPan="magnify" viewBox="0 0 375 374.999991" height="500" preserveAspectRatio="xMidYMid meet" version="1.0"><defs><g/><clipPath id="9390718540"><path d="M 111.269531 8 L 244 8 L 244 176 L 111.269531 176 Z M 111.269531 8 " clip-rule="nonzero"/></clipPath><clipPath id="c09d2d4df8"><path d="M 111.269531 7.558594 L 245 7.558594 L 245 177 L 111.269531 177 Z M 111.269531 7.558594 " clip-rule="nonzero"/></clipPath><clipPath id="3964f00b7a"><path d="M 131 19 L 263.519531 19 L 263.519531 187 L 131 187 Z M 131 19 " clip-rule="nonzero"/></clipPath><clipPath id="57788b55c8"><path d="M 130 19 L 263.519531 19 L 263.519531 187.558594 L 130 187.558594 Z M 130 19 " clip-rule="nonzero"/></clipPath></defs><g clip-path="url(#9390718540)"><path fill="#d9d9d9" d="M 243.773438 11.898438 L 243.773438 95.730469 C 243.773438 98.707031 241.984375 102.148438 239.765625 103.402344 L 115.769531 175.117188 C 113.550781 176.40625 111.757812 175.046875 111.757812 172.070312 L 111.757812 88.238281 C 111.757812 85.261719 113.550781 81.820312 115.769531 80.5625 L 239.765625 8.851562 C 241.949219 7.558594 243.773438 8.921875 243.773438 11.898438 Z M 243.773438 11.898438 " fill-opacity="1" fill-rule="nonzero"/></g><g clip-path="url(#c09d2d4df8)"><path fill="#000000" d="M 242.558594 8.277344 C 241.699219 7.773438 240.625 7.847656 239.515625 8.492188 L 115.519531 80.203125 C 113.226562 81.53125 111.328125 85.152344 111.328125 88.238281 L 111.328125 172.070312 C 111.328125 173.789062 111.902344 175.082031 112.90625 175.691406 C 113.261719 175.90625 113.691406 176.015625 114.121094 176.015625 C 114.695312 176.015625 115.304688 175.835938 115.910156 175.476562 L 239.90625 103.761719 C 242.234375 102.398438 244.132812 98.816406 244.132812 95.730469 L 244.132812 11.898438 C 244.167969 10.175781 243.59375 8.851562 242.558594 8.277344 Z M 239.550781 103.046875 L 115.554688 174.757812 C 114.730469 175.226562 113.941406 175.332031 113.335938 174.972656 C 112.582031 174.542969 112.152344 173.46875 112.152344 172.070312 L 112.152344 91.285156 L 243.34375 15.414062 L 243.34375 95.730469 C 243.34375 98.527344 241.625 101.828125 239.550781 103.046875 Z M 239.550781 103.046875 " fill-opacity="1" fill-rule="nonzero"/></g><path fill="#d9d9d9" d="M 115.125 85.441406 C 115.125 85.941406 115.265625 86.300781 115.554688 86.480469 C 115.839844 86.625 116.234375 86.585938 116.664062 86.335938 C 117.703125 85.726562 118.597656 84.183594 118.597656 83 C 118.597656 82.5 118.453125 82.140625 118.167969 81.960938 C 118.058594 81.890625 117.953125 81.890625 117.808594 81.890625 C 117.59375 81.890625 117.308594 81.960938 117.058594 82.140625 C 116.019531 82.679688 115.125 84.222656 115.125 85.441406 Z M 115.125 85.441406 " fill-opacity="1" fill-rule="nonzero"/><path fill="#737373" d="M 120.957031 82.035156 C 120.957031 82.535156 121.101562 82.894531 121.386719 83.074219 C 121.675781 83.21875 122.070312 83.179688 122.496094 82.929688 C 123.535156 82.320312 124.429688 80.777344 124.429688 79.59375 C 124.429688 79.09375 124.289062 78.734375 124 78.554688 C 123.894531 78.484375 123.785156 78.484375 123.644531 78.484375 C 123.429688 78.484375 123.140625 78.554688 122.890625 78.734375 C 121.855469 79.308594 120.957031 80.851562 120.957031 82.035156 Z M 120.957031 82.035156 " fill-opacity="1" fill-rule="nonzero"/><path fill="#fefefe" d="M 126.9375 78.589844 C 126.9375 79.09375 127.078125 79.453125 127.367188 79.632812 C 127.652344 79.773438 128.046875 79.738281 128.476562 79.488281 C 129.515625 78.878906 130.410156 77.335938 130.410156 76.152344 C 130.410156 75.652344 130.265625 75.292969 129.980469 75.113281 C 129.871094 75.042969 129.765625 75.042969 129.621094 75.042969 C 129.40625 75.042969 129.121094 75.113281 128.871094 75.292969 C 127.832031 75.832031 126.9375 77.371094 126.9375 78.589844 Z M 126.9375 78.589844 " fill-opacity="1" fill-rule="nonzero"/><path fill="#737373" d="M 253.402344 17.347656 L 253.402344 101.179688 C 253.402344 104.15625 251.613281 107.597656 249.394531 108.855469 L 125.398438 180.566406 C 123.179688 181.859375 121.386719 180.496094 121.386719 177.519531 L 121.386719 93.6875 C 121.386719 90.710938 123.179688 87.269531 125.398438 86.015625 L 249.394531 14.300781 C 251.613281 13.011719 253.402344 14.371094 253.402344 17.347656 Z M 253.402344 17.347656 " fill-opacity="1" fill-rule="nonzero"/><path fill="#000000" d="M 252.222656 13.726562 C 251.363281 13.226562 250.289062 13.296875 249.179688 13.941406 L 125.183594 85.65625 C 122.855469 87.019531 120.957031 90.601562 120.957031 93.6875 L 120.957031 177.519531 C 120.957031 179.242188 121.53125 180.53125 122.535156 181.140625 C 122.890625 181.355469 123.320312 181.464844 123.75 181.464844 C 124.324219 181.464844 124.933594 181.285156 125.539062 180.925781 L 249.535156 109.214844 C 251.863281 107.851562 253.761719 104.265625 253.761719 101.179688 L 253.761719 17.347656 C 253.832031 15.628906 253.222656 14.335938 252.222656 13.726562 Z M 253.007812 20.863281 L 253.007812 21.792969 L 244.8125 30.003906 L 235.039062 39.792969 L 215.496094 59.371094 L 205.722656 69.160156 L 186.144531 88.773438 L 176.371094 98.5625 L 156.789062 118.175781 L 147.019531 127.964844 L 127.472656 147.542969 L 121.78125 153.246094 L 121.78125 150.984375 L 129.980469 142.773438 L 142.1875 130.546875 L 159.296875 113.40625 L 171.503906 101.179688 L 188.648438 83.96875 L 200.855469 71.742188 L 205.363281 67.226562 L 205.757812 66.832031 L 217.964844 54.601562 L 230.207031 42.375 L 247.316406 25.238281 L 249.859375 22.65625 Z M 242.34375 59.40625 L 235.003906 66.757812 L 213.027344 88.773438 L 205.6875 96.125 L 183.707031 118.140625 L 176.371094 125.492188 L 154.390625 147.507812 L 147.054688 154.859375 L 125.074219 176.875 L 122.320312 179.636719 C 122.03125 179.167969 121.890625 178.558594 121.855469 177.84375 L 127.617188 172.070312 L 142.292969 157.367188 L 156.96875 142.667969 L 171.644531 127.964844 L 186.320312 113.265625 L 201 98.5625 L 205.402344 94.152344 L 205.902344 93.652344 L 215.675781 83.863281 L 230.351562 69.160156 L 245.027344 54.460938 L 253.152344 46.320312 L 253.152344 48.578125 Z M 239.90625 59.40625 L 235.003906 64.320312 L 210.554688 88.8125 L 205.652344 93.722656 L 181.203125 118.214844 L 176.371094 123.054688 L 151.921875 147.542969 L 147.019531 152.457031 L 122.570312 176.945312 L 121.78125 177.734375 C 121.78125 177.664062 121.78125 177.589844 121.78125 177.519531 L 121.78125 175.441406 L 125.109375 172.105469 L 142.222656 154.964844 L 154.429688 142.738281 L 171.539062 125.597656 L 183.746094 113.371094 L 200.855469 96.234375 L 205.113281 91.964844 L 205.722656 91.355469 L 213.0625 84.003906 L 230.171875 66.867188 L 242.378906 54.640625 L 252.9375 44.0625 L 252.9375 46.320312 Z M 237.472656 59.40625 L 235.039062 61.847656 L 208.15625 88.773438 L 205.722656 91.214844 L 178.839844 118.140625 L 176.40625 120.578125 L 149.523438 147.507812 L 147.089844 149.945312 L 121.855469 175.226562 L 121.855469 172.964844 L 122.75 172.070312 L 142.292969 152.492188 L 152.066406 142.703125 L 171.609375 123.125 L 181.382812 113.335938 L 200.925781 93.757812 L 210.699219 83.96875 L 230.242188 64.390625 L 240.015625 54.601562 L 253.046875 41.550781 L 253.046875 43.8125 Z M 235.003906 59.40625 L 147.054688 147.507812 L 121.816406 172.785156 L 121.816406 170.527344 L 142.257812 150.054688 L 149.59375 142.703125 L 171.574219 120.6875 L 178.910156 113.335938 L 200.890625 91.320312 L 208.230469 83.96875 L 230.207031 61.953125 L 237.546875 54.601562 L 253.007812 39.113281 L 253.007812 41.371094 Z M 232.570312 59.40625 L 144.621094 147.507812 L 121.78125 170.382812 L 121.78125 168.125 L 147.089844 142.773438 L 176.40625 113.40625 L 205.722656 84.042969 L 235.039062 54.675781 L 252.9375 36.746094 L 252.9375 39.003906 Z M 230.136719 59.40625 L 200.820312 88.773438 L 171.464844 118.175781 L 142.148438 147.542969 L 121.816406 167.910156 L 121.816406 165.652344 L 142.257812 145.175781 L 171.574219 115.8125 L 174.007812 113.371094 L 200.890625 86.445312 L 230.207031 57.078125 L 253.007812 34.238281 L 253.007812 36.496094 Z M 235.003906 52.058594 L 227.664062 59.40625 L 205.6875 81.460938 L 198.347656 88.8125 L 176.371094 110.828125 L 169.03125 118.175781 L 147.054688 140.191406 L 139.714844 147.542969 L 121.816406 165.472656 L 121.816406 163.214844 L 142.257812 142.738281 L 200.890625 84.003906 L 205.6875 79.199219 L 205.792969 79.09375 L 230.242188 54.601562 L 253.046875 31.761719 L 253.046875 34.023438 Z M 235.003906 49.621094 L 225.230469 59.40625 L 205.6875 78.984375 L 195.914062 88.773438 L 176.371094 108.351562 L 166.597656 118.140625 L 147.019531 137.753906 L 137.246094 147.542969 L 121.78125 163.035156 L 121.78125 160.773438 L 139.789062 142.738281 L 142.222656 140.300781 L 169.105469 113.371094 L 171.539062 110.933594 L 198.421875 84.003906 L 200.855469 81.566406 L 205.617188 76.796875 L 205.757812 76.65625 L 227.738281 54.640625 L 230.171875 52.199219 L 252.972656 29.359375 L 252.972656 31.621094 Z M 252.113281 30.042969 L 235.003906 47.179688 L 222.796875 59.40625 L 205.6875 76.546875 L 193.480469 88.773438 L 176.371094 105.914062 L 164.164062 118.140625 L 147.054688 135.28125 L 134.847656 147.507812 L 121.816406 160.558594 L 121.816406 158.300781 L 137.351562 142.738281 L 142.257812 137.828125 L 166.707031 113.335938 L 171.609375 108.425781 L 196.058594 83.933594 L 200.960938 79.023438 L 205.652344 74.324219 L 205.832031 74.144531 L 225.375 54.566406 L 230.277344 49.65625 L 253.082031 26.816406 L 253.082031 29.074219 Z M 249.679688 30.042969 L 235.003906 44.742188 L 220.328125 59.445312 L 205.652344 74.144531 L 190.976562 88.847656 L 176.300781 103.546875 L 161.621094 118.25 L 146.945312 132.949219 L 132.269531 147.652344 L 121.710938 158.230469 L 121.710938 155.96875 L 134.8125 142.847656 L 142.148438 135.496094 L 164.128906 113.480469 L 171.464844 106.128906 L 193.445312 84.113281 L 200.785156 76.761719 L 205.4375 72.101562 L 205.6875 71.851562 L 222.796875 54.710938 L 230.136719 47.359375 L 252.113281 25.34375 L 252.902344 24.554688 L 252.902344 26.816406 Z M 247.246094 30.042969 L 235.039062 42.269531 L 217.929688 59.40625 L 205.722656 71.636719 L 188.613281 88.773438 L 176.40625 101 L 159.296875 118.140625 L 147.089844 130.367188 L 129.980469 147.507812 L 121.78125 155.683594 L 121.78125 153.425781 L 132.449219 142.738281 L 142.222656 132.949219 L 161.765625 113.371094 L 171.539062 103.582031 L 191.082031 84.003906 L 200.855469 74.21875 L 205.4375 69.628906 L 205.757812 69.304688 L 220.433594 54.601562 L 230.207031 44.816406 L 249.75 25.238281 L 252.972656 22.011719 L 252.972656 24.269531 Z M 242.34375 30.042969 L 235.003906 37.390625 L 213.027344 59.40625 L 205.6875 66.757812 L 183.707031 88.773438 L 176.371094 96.125 L 154.390625 118.140625 L 147.054688 125.492188 L 125.074219 147.507812 L 121.855469 150.734375 L 121.855469 148.511719 L 127.617188 142.738281 L 142.292969 128.039062 L 156.96875 113.335938 L 171.644531 98.636719 L 186.320312 83.933594 L 201 69.234375 L 205.402344 64.824219 L 205.902344 64.320312 L 215.675781 54.53125 L 230.351562 39.832031 L 244.238281 25.917969 L 249.609375 22.796875 Z M 122.246094 96.484375 L 121.78125 96.949219 L 121.78125 96.769531 Z M 122.640625 96.234375 L 128.011719 93.113281 L 121.78125 99.386719 L 121.78125 97.128906 Z M 128.441406 92.898438 L 133.808594 89.777344 L 121.78125 101.828125 L 121.78125 99.566406 Z M 134.238281 89.5625 L 139.609375 86.445312 L 137.28125 88.773438 L 121.816406 104.265625 L 121.816406 102.003906 Z M 140.003906 86.191406 L 145.371094 83.074219 L 139.679688 88.773438 L 121.78125 106.703125 L 121.78125 104.445312 Z M 142.222656 86.445312 L 145.765625 82.894531 L 151.132812 79.773438 L 142.113281 88.8125 L 121.78125 109.175781 L 121.78125 106.917969 Z M 147.125 83.96875 L 151.5625 79.523438 L 156.933594 76.402344 L 144.585938 88.773438 L 121.78125 111.617188 L 121.78125 109.355469 Z M 142.222656 91.320312 L 149.558594 83.96875 L 157.363281 76.152344 L 162.734375 73.035156 L 147.054688 88.738281 L 121.816406 114.019531 L 121.816406 111.757812 Z M 122.675781 113.371094 L 142.222656 93.792969 L 151.992188 84.003906 L 163.125 72.855469 L 168.496094 69.734375 L 149.453125 88.8125 L 147.019531 91.25 L 121.78125 116.527344 L 121.78125 114.269531 Z M 125.109375 113.371094 L 142.222656 96.234375 L 154.429688 84.003906 L 168.890625 69.519531 L 174.257812 66.398438 L 151.886719 88.8125 L 146.980469 93.722656 L 122.535156 118.214844 L 121.746094 119 L 121.746094 116.742188 Z M 127.582031 113.371094 L 142.257812 98.671875 L 156.933594 83.96875 L 171.609375 69.269531 L 174.761719 66.113281 L 180.128906 62.992188 L 176.371094 66.757812 L 154.390625 88.773438 L 147.054688 96.125 L 125.074219 118.140625 L 121.855469 121.367188 L 121.855469 119.109375 Z M 130.015625 113.371094 L 142.222656 101.144531 L 159.332031 84.003906 L 171.539062 71.777344 L 180.453125 62.851562 L 185.820312 59.730469 L 176.335938 69.234375 L 156.789062 88.773438 L 147.019531 98.5625 L 127.472656 118.140625 L 121.78125 123.84375 L 121.78125 121.582031 Z M 132.449219 113.371094 L 142.222656 103.582031 L 161.765625 84.003906 L 171.539062 74.21875 L 186.25 59.480469 L 191.621094 56.359375 L 188.578125 59.40625 L 176.371094 71.636719 L 159.261719 88.773438 L 147.054688 101 L 129.945312 118.140625 L 121.816406 126.28125 L 121.816406 124.023438 Z M 134.882812 113.371094 L 142.222656 106.023438 L 164.199219 84.003906 L 171.539062 76.65625 L 192.011719 56.144531 L 197.382812 53.027344 L 190.976562 59.445312 L 176.300781 74.144531 L 161.621094 88.847656 L 146.945312 103.546875 L 132.269531 118.25 L 121.710938 128.828125 L 121.710938 126.566406 Z M 137.351562 113.371094 L 142.257812 108.460938 L 166.707031 83.96875 L 171.609375 79.058594 L 196.058594 54.566406 L 197.882812 52.738281 L 203.253906 49.621094 L 193.515625 59.371094 L 176.40625 76.511719 L 164.199219 88.738281 L 147.089844 105.878906 L 134.882812 118.105469 L 121.855469 131.15625 L 121.855469 128.898438 Z M 139.789062 113.371094 L 142.222656 110.933594 L 169.105469 84.003906 L 171.539062 81.566406 L 198.421875 54.640625 L 200.855469 52.199219 L 203.574219 49.476562 L 208.945312 46.355469 L 205.652344 49.65625 L 195.878906 59.445312 L 176.335938 79.023438 L 166.5625 88.8125 L 147.019531 108.386719 L 137.246094 118.175781 L 121.78125 133.667969 L 121.78125 131.40625 Z M 142.222656 113.371094 L 171.539062 84.003906 L 200.855469 54.640625 L 205.652344 49.835938 L 205.757812 49.726562 L 209.375 46.105469 L 214.742188 42.984375 L 205.6875 52.058594 L 198.347656 59.40625 L 176.371094 81.460938 L 169.03125 88.8125 L 147.054688 110.828125 L 139.714844 118.175781 L 121.816406 136.105469 L 121.816406 133.8125 Z M 142.222656 115.8125 L 144.65625 113.371094 L 171.539062 86.445312 L 200.855469 57.078125 L 215.171875 42.734375 L 220.542969 39.617188 L 200.785156 59.40625 L 171.464844 88.773438 L 142.148438 118.140625 L 121.816406 138.507812 L 121.816406 136.25 Z M 147.125 113.371094 L 176.441406 84.003906 L 205.757812 54.640625 L 220.9375 39.4375 L 226.304688 36.316406 L 203.21875 59.445312 L 173.902344 88.8125 L 144.585938 118.175781 L 121.78125 140.980469 L 121.78125 138.722656 Z M 142.222656 120.6875 L 149.558594 113.335938 L 171.539062 91.320312 L 178.875 83.96875 L 200.855469 61.953125 L 208.191406 54.601562 L 226.734375 36.03125 L 232.105469 32.910156 L 205.6875 59.371094 L 147.054688 118.105469 L 121.816406 143.382812 L 121.816406 141.125 Z M 122.675781 142.738281 L 142.222656 123.160156 L 151.992188 113.371094 L 171.539062 93.792969 L 181.308594 84.003906 L 200.855469 64.429688 L 210.628906 54.640625 L 230.171875 35.0625 L 232.5 32.730469 L 237.867188 29.613281 L 237.4375 30.042969 L 235.003906 32.480469 L 208.121094 59.40625 L 205.6875 61.847656 L 178.804688 88.773438 L 176.371094 91.214844 L 149.488281 118.140625 L 147.054688 120.578125 L 121.816406 145.859375 L 121.816406 143.597656 Z M 125.109375 142.738281 L 142.222656 125.597656 L 154.429688 113.371094 L 171.539062 96.234375 L 183.746094 84.003906 L 200.855469 66.867188 L 205.113281 62.597656 L 205.722656 61.988281 L 213.0625 54.640625 L 230.171875 37.5 L 238.261719 29.394531 L 243.628906 26.277344 L 239.835938 30.078125 L 234.933594 34.988281 L 210.484375 59.480469 L 205.578125 64.390625 L 181.132812 88.882812 L 176.226562 93.792969 L 151.777344 118.285156 L 147.019531 123.054688 L 122.570312 147.542969 L 121.78125 148.332031 L 121.78125 146.074219 Z M 122.355469 179.777344 L 130.015625 172.105469 L 142.222656 159.878906 L 159.332031 142.738281 L 171.539062 130.511719 L 188.648438 113.371094 L 200.855469 101.144531 L 205.363281 96.628906 L 205.757812 96.234375 L 218 83.96875 L 230.207031 71.742188 L 247.316406 54.601562 L 253.007812 48.902344 L 253.007812 51.160156 L 244.8125 59.371094 L 235.039062 69.160156 L 215.496094 88.738281 L 205.722656 98.527344 L 186.144531 118.175781 L 176.371094 127.964844 L 156.789062 147.542969 L 147.019531 157.332031 L 127.472656 176.910156 L 123.785156 180.601562 C 123.5 180.601562 123.214844 180.53125 123 180.386719 C 122.75 180.28125 122.535156 180.066406 122.355469 179.777344 Z M 125.21875 180.207031 C 124.789062 180.460938 124.359375 180.601562 123.964844 180.640625 L 132.449219 172.105469 L 142.222656 162.316406 L 161.765625 142.738281 L 171.539062 132.949219 L 191.082031 113.371094 L 200.855469 103.582031 L 205.4375 98.992188 L 205.757812 98.671875 L 220.433594 83.96875 L 230.207031 74.179688 L 249.75 54.601562 L 252.972656 51.375 L 252.972656 53.636719 L 247.210938 59.40625 L 235.003906 71.636719 L 217.894531 88.773438 L 205.6875 101 L 188.578125 118.140625 L 176.371094 130.367188 L 159.261719 147.507812 L 147.054688 159.734375 L 129.945312 176.875 L 128.65625 178.164062 Z M 252.832031 102.757812 L 244.273438 111.328125 L 238.90625 114.449219 L 239.980469 113.371094 L 253.007812 100.320312 L 253.007812 101.144531 C 253.007812 101.683594 252.9375 102.222656 252.832031 102.757812 Z M 249.179688 108.496094 L 244.667969 111.113281 L 252.757812 103.007812 C 252.257812 105.304688 250.863281 107.527344 249.179688 108.496094 Z M 238.511719 114.664062 L 233.144531 117.78125 L 237.546875 113.371094 L 253.007812 97.882812 L 253.007812 100.140625 Z M 232.714844 118.035156 L 227.34375 121.152344 L 235.113281 113.371094 L 253.007812 95.445312 L 253.007812 97.703125 Z M 230.136719 118.175781 L 226.949219 121.367188 L 221.582031 124.488281 L 232.675781 113.371094 L 253.007812 93.003906 L 253.007812 95.265625 Z M 235.003906 110.828125 L 227.664062 118.175781 L 221.152344 124.703125 L 215.78125 127.824219 L 230.207031 113.371094 L 253.007812 90.53125 L 253.007812 92.789062 Z M 235.003906 108.386719 L 225.230469 118.175781 L 215.351562 128.074219 L 209.984375 131.191406 L 227.773438 113.371094 L 230.207031 110.933594 L 253.007812 88.09375 L 253.007812 90.351562 Z M 252.113281 88.773438 L 235.003906 105.914062 L 222.796875 118.140625 L 209.589844 131.371094 L 204.21875 134.492188 L 205.578125 133.128906 L 205.757812 132.949219 L 225.304688 113.371094 L 230.207031 108.460938 L 253.007812 85.621094 L 253.007812 87.878906 Z M 249.679688 88.773438 L 235.003906 103.476562 L 220.328125 118.175781 L 205.652344 132.878906 L 203.753906 134.777344 L 198.386719 137.898438 L 200.855469 135.425781 L 205.507812 130.761719 L 205.757812 130.511719 L 222.871094 113.371094 L 230.207031 106.023438 L 252.1875 84.003906 L 252.972656 83.21875 L 252.972656 85.476562 Z M 247.246094 88.773438 L 235.039062 101 L 217.929688 118.140625 L 205.722656 130.367188 L 198.0625 138.042969 L 192.695312 141.160156 L 200.925781 132.914062 L 205.507812 128.324219 L 205.832031 128 L 220.507812 113.300781 L 230.277344 103.511719 L 249.824219 83.933594 L 253.046875 80.707031 L 253.046875 82.964844 Z M 244.777344 88.773438 L 235.003906 98.5625 L 215.460938 118.140625 L 205.6875 127.929688 L 192.226562 141.449219 L 186.859375 144.566406 L 188.648438 142.773438 L 200.855469 130.546875 L 205.363281 126.03125 L 205.757812 125.636719 L 218 113.371094 L 230.207031 101.144531 L 247.316406 84.003906 L 253.007812 78.304688 L 253.007812 80.5625 Z M 242.34375 88.773438 L 235.003906 96.125 L 213.027344 118.140625 L 205.6875 125.492188 L 186.464844 144.746094 L 181.09375 147.867188 L 186.25 142.703125 L 200.925781 128 L 205.328125 123.589844 L 205.832031 123.089844 L 215.601562 113.300781 L 230.277344 98.597656 L 244.957031 83.898438 L 253.082031 75.757812 L 253.082031 78.019531 Z M 239.90625 88.773438 L 235.003906 93.6875 L 210.554688 118.175781 L 205.6875 123.054688 L 181.238281 147.542969 L 180.667969 148.117188 L 175.296875 151.238281 L 183.78125 142.738281 L 200.890625 125.597656 L 205.148438 121.332031 L 205.757812 120.722656 L 213.097656 113.371094 L 230.207031 96.234375 L 242.414062 84.003906 L 252.972656 73.429688 L 252.972656 75.6875 Z M 237.472656 88.773438 L 235.039062 91.214844 L 208.15625 118.140625 L 205.722656 120.578125 L 178.839844 147.507812 L 176.40625 149.945312 L 174.9375 151.417969 L 169.570312 154.535156 L 171.609375 152.492188 L 181.382812 142.703125 L 200.925781 123.125 L 210.699219 113.335938 L 230.242188 93.757812 L 240.015625 83.96875 L 253.046875 70.917969 L 253.046875 73.175781 Z M 235.003906 88.773438 L 176.371094 147.507812 L 169.105469 154.785156 L 163.734375 157.90625 L 171.574219 150.054688 L 178.910156 142.703125 L 200.890625 120.6875 L 208.230469 113.335938 L 230.207031 91.320312 L 237.546875 83.96875 L 253.007812 68.480469 L 253.007812 70.738281 Z M 232.570312 88.773438 L 173.9375 147.507812 L 163.339844 158.121094 L 157.972656 161.242188 L 176.476562 142.703125 L 205.792969 113.335938 L 235.113281 83.96875 L 253.007812 66.042969 L 253.007812 68.300781 Z M 230.136719 88.773438 L 200.820312 118.140625 L 171.464844 147.542969 L 157.542969 161.492188 L 152.171875 164.613281 L 171.574219 145.175781 L 203.324219 113.371094 L 205.6875 111.003906 L 205.757812 110.933594 L 230.207031 86.445312 L 253.007812 63.601562 L 253.007812 65.863281 Z M 235.003906 81.460938 L 227.664062 88.773438 L 205.6875 110.789062 L 198.347656 118.140625 L 176.371094 140.15625 L 169.03125 147.507812 L 151.777344 164.789062 L 146.410156 167.910156 L 171.574219 142.703125 L 200.890625 113.335938 L 205.6875 108.53125 L 205.792969 108.425781 L 230.242188 83.933594 L 253.046875 61.09375 L 253.046875 63.351562 Z M 235.003906 78.984375 L 225.230469 88.773438 L 205.6875 108.351562 L 195.914062 118.140625 L 176.371094 137.753906 L 166.597656 147.542969 L 147.054688 167.121094 L 146.015625 168.160156 L 140.644531 171.28125 L 142.257812 169.667969 L 169.140625 142.738281 L 171.574219 140.300781 L 198.457031 113.371094 L 200.890625 110.933594 L 205.652344 106.164062 L 205.792969 106.023438 L 227.773438 84.003906 L 230.207031 81.566406 L 253.007812 58.726562 L 253.007812 60.984375 Z M 252.113281 59.40625 L 235.003906 76.546875 L 222.796875 88.773438 L 205.6875 105.914062 L 193.480469 118.140625 L 176.371094 135.28125 L 164.164062 147.507812 L 147.054688 164.648438 L 140.21875 171.496094 L 134.847656 174.617188 L 137.351562 172.105469 L 142.257812 167.191406 L 166.707031 142.703125 L 171.609375 137.789062 L 196.058594 113.300781 L 200.960938 108.386719 L 205.652344 103.691406 L 205.832031 103.511719 L 225.375 83.933594 L 230.277344 79.023438 L 253.082031 56.179688 L 253.082031 58.441406 Z M 249.679688 59.40625 L 220.328125 88.8125 L 205.652344 103.511719 L 190.976562 118.214844 L 176.300781 132.914062 L 161.621094 147.617188 L 146.945312 162.316406 L 134.3125 174.9375 L 128.941406 178.058594 L 134.8125 172.175781 L 142.148438 164.828125 L 164.128906 142.8125 L 171.464844 135.460938 L 193.445312 113.445312 L 200.785156 106.09375 L 205.4375 101.433594 L 205.6875 101.179688 L 222.796875 84.042969 L 230.136719 76.691406 L 252.113281 54.675781 L 252.902344 53.886719 L 252.902344 56.144531 Z M 249.679688 59.40625 " fill-opacity="1" fill-rule="nonzero"/><path fill="#d9d9d9" d="M 124.789062 90.890625 C 124.789062 91.390625 124.933594 91.75 125.21875 91.929688 C 125.503906 92.074219 125.898438 92.039062 126.328125 91.785156 C 127.367188 91.175781 128.261719 89.636719 128.261719 88.453125 C 128.261719 87.949219 128.117188 87.589844 127.832031 87.414062 C 127.722656 87.339844 127.617188 87.339844 127.472656 87.339844 C 127.257812 87.339844 126.972656 87.414062 126.722656 87.589844 C 125.648438 88.128906 124.789062 89.671875 124.789062 90.890625 Z M 124.789062 90.890625 " fill-opacity="1" fill-rule="nonzero"/><path fill="#737373" d="M 130.625 87.519531 C 130.625 88.023438 130.765625 88.378906 131.054688 88.558594 C 131.339844 88.703125 131.734375 88.667969 132.164062 88.417969 C 133.199219 87.804688 134.097656 86.265625 134.097656 85.082031 C 134.097656 84.578125 133.953125 84.222656 133.667969 84.042969 C 133.558594 83.96875 133.453125 83.96875 133.308594 83.96875 C 133.09375 83.96875 132.808594 84.042969 132.554688 84.222656 C 131.519531 84.757812 130.625 86.300781 130.625 87.519531 Z M 130.625 87.519531 " fill-opacity="1" fill-rule="nonzero"/><path fill="#fefefe" d="M 136.601562 84.042969 C 136.601562 84.542969 136.746094 84.902344 137.03125 85.082031 C 137.316406 85.226562 137.710938 85.1875 138.140625 84.9375 C 139.179688 84.328125 140.074219 82.785156 140.074219 81.601562 C 140.074219 81.101562 139.929688 80.742188 139.644531 80.5625 C 139.535156 80.492188 139.429688 80.492188 139.285156 80.492188 C 139.070312 80.492188 138.785156 80.5625 138.535156 80.742188 C 137.496094 81.316406 136.601562 82.824219 136.601562 84.042969 Z M 136.601562 84.042969 " fill-opacity="1" fill-rule="nonzero"/><g clip-path="url(#3964f00b7a)"><path fill="#fefefe" d="M 259.058594 20 L 135.0625 91.714844 C 132.84375 93.003906 131.054688 96.449219 131.054688 99.386719 L 131.054688 183.222656 C 131.054688 186.195312 132.84375 187.558594 135.0625 186.269531 L 259.058594 114.554688 C 261.277344 113.265625 263.066406 109.824219 263.066406 106.882812 L 263.066406 23.050781 C 263.066406 20.074219 261.277344 18.710938 259.058594 20 Z M 259.058594 20 " fill-opacity="1" fill-rule="nonzero"/></g><g clip-path="url(#57788b55c8)"><path fill="#000000" d="M 261.886719 19.429688 C 261.027344 18.925781 259.953125 18.996094 258.84375 19.644531 L 134.847656 91.355469 C 132.519531 92.71875 130.625 96.304688 130.625 99.386719 L 130.625 183.222656 C 130.625 184.941406 131.195312 186.234375 132.199219 186.84375 C 132.554688 187.058594 132.984375 187.164062 133.414062 187.164062 C 133.988281 187.164062 134.597656 186.984375 135.207031 186.628906 L 259.203125 114.914062 C 261.527344 113.550781 263.425781 109.964844 263.425781 106.882812 L 263.425781 23.050781 C 263.460938 21.328125 262.890625 20.039062 261.886719 19.429688 Z M 258.84375 114.195312 L 134.847656 185.910156 C 134.023438 186.375 133.238281 186.484375 132.628906 186.125 C 131.875 185.695312 131.445312 184.621094 131.445312 183.222656 L 131.445312 102.4375 L 262.636719 26.5625 L 262.636719 106.882812 C 262.636719 109.679688 260.957031 112.976562 258.84375 114.195312 Z M 258.84375 114.195312 " fill-opacity="1" fill-rule="nonzero"/></g><path fill="#d9d9d9" d="M 134.417969 96.589844 C 134.417969 97.09375 134.5625 97.453125 134.847656 97.632812 C 135.132812 97.773438 135.527344 97.738281 135.957031 97.488281 C 136.996094 96.878906 137.890625 95.335938 137.890625 94.152344 C 137.890625 93.652344 137.746094 93.292969 137.460938 93.113281 C 137.351562 93.042969 137.246094 93.042969 137.101562 93.042969 C 136.886719 93.042969 136.601562 93.113281 136.351562 93.292969 C 135.3125 93.832031 134.417969 95.371094 134.417969 96.589844 Z M 134.417969 96.589844 " fill-opacity="1" fill-rule="nonzero"/><path fill="#737373" d="M 140.253906 93.222656 C 140.253906 93.722656 140.394531 94.082031 140.683594 94.261719 C 140.96875 94.402344 141.363281 94.367188 141.792969 94.117188 C 142.828125 93.507812 143.726562 91.964844 143.726562 90.78125 C 143.726562 90.28125 143.582031 89.921875 143.296875 89.742188 C 143.1875 89.671875 143.082031 89.671875 142.9375 89.671875 C 142.722656 89.671875 142.4375 89.742188 142.1875 89.921875 C 141.148438 90.460938 140.253906 92 140.253906 93.222656 Z M 140.253906 93.222656 " fill-opacity="1" fill-rule="nonzero"/><path fill="#fefefe" d="M 146.265625 89.742188 C 146.265625 90.246094 146.410156 90.601562 146.695312 90.78125 C 146.980469 90.925781 147.375 90.890625 147.804688 90.640625 C 148.84375 90.03125 149.738281 88.488281 149.738281 87.304688 C 149.738281 86.800781 149.59375 86.445312 149.308594 86.265625 C 149.203125 86.191406 149.09375 86.191406 148.949219 86.191406 C 148.734375 86.191406 148.449219 86.265625 148.199219 86.445312 C 147.160156 87.019531 146.265625 88.523438 146.265625 89.742188 Z M 146.265625 89.742188 " fill-opacity="1" fill-rule="nonzero"/><path fill="#d9d9d9" d="M 204.542969 109.75 L 152.207031 140.015625 L 152.207031 101.789062 L 204.542969 71.527344 Z M 204.542969 109.75 " fill-opacity="1" fill-rule="nonzero"/><path fill="#737373" d="M 241.914062 65.828125 L 209.875 84.363281 L 209.875 68.445312 L 241.914062 49.90625 Z M 241.914062 70.8125 L 209.875 89.347656 L 209.875 106.703125 L 241.914062 88.164062 Z M 241.914062 70.8125 " fill-opacity="1" fill-rule="nonzero"/><path fill="#000000" d="M 204.972656 109.964844 L 204.972656 70.8125 L 152.03125 101.433594 L 151.816406 101.539062 L 151.816406 140.695312 L 204.757812 110.109375 Z M 204.148438 109.5 L 152.636719 139.296875 L 152.636719 102.042969 L 204.148438 72.246094 Z M 204.148438 109.5 " fill-opacity="1" fill-rule="nonzero"/><path fill="#000000" d="M 209.660156 68.085938 L 209.445312 68.191406 L 209.445312 85.046875 L 242.089844 66.183594 L 242.304688 66.078125 L 242.304688 49.226562 Z M 241.484375 65.613281 L 210.269531 83.648438 L 210.269531 68.695312 L 241.484375 50.660156 Z M 241.484375 65.613281 " fill-opacity="1" fill-rule="nonzero"/><path fill="#000000" d="M 209.445312 89.097656 L 209.445312 107.382812 L 242.089844 88.523438 L 242.304688 88.417969 L 242.304688 70.128906 L 209.660156 88.988281 Z M 210.269531 89.5625 L 241.484375 71.527344 L 241.484375 87.914062 L 210.269531 105.949219 Z M 210.269531 89.5625 " fill-opacity="1" fill-rule="nonzero"/><path fill="#000000" d="M 152.207031 150.628906 L 214.492188 114.589844 L 214.492188 112.402344 L 152.207031 148.402344 Z M 152.207031 150.628906 " fill-opacity="1" fill-rule="nonzero"/><path fill="#000000" d="M 152.207031 161.957031 L 214.492188 125.921875 L 214.492188 123.734375 L 152.207031 159.769531 Z M 152.207031 161.957031 " fill-opacity="1" fill-rule="nonzero"/><path fill="#000000" d="M 152.207031 167.625 L 214.492188 131.625 L 214.492188 129.398438 L 152.207031 165.4375 Z M 152.207031 167.625 " fill-opacity="1" fill-rule="nonzero"/><path fill="#000000" d="M 152.207031 156.292969 L 214.492188 120.257812 L 214.492188 118.070312 L 152.207031 154.105469 Z M 152.207031 156.292969 " fill-opacity="1" fill-rule="nonzero"/><g fill="#000000" fill-opacity="1"><g transform="translate(33.806566, 248.014199)"><g><path d="M 1.71875 0.265625 C 1.019531 0.285156 0.46875 0.0976562 0.0625 -0.296875 C -0.332031 -0.691406 -0.53125 -1.203125 -0.53125 -1.828125 C -0.53125 -2.304688 -0.382812 -2.722656 -0.09375 -3.078125 C 0.195312 -3.441406 0.613281 -3.640625 1.15625 -3.671875 L 2.28125 -3.734375 C 4.5 -3.890625 5.609375 -5.113281 5.609375 -7.40625 L 5.609375 -24.234375 C 5.609375 -25.859375 6.40625 -26.671875 8 -26.671875 C 9.601562 -26.671875 10.40625 -25.859375 10.40625 -24.234375 L 10.40625 -7.4375 C 10.40625 -5.09375 9.78125 -3.269531 8.53125 -1.96875 C 7.28125 -0.675781 5.4375 0.0390625 3 0.1875 Z M 1.71875 0.265625 "/></g></g></g><g fill="#000000" fill-opacity="1"><g transform="translate(48.956395, 248.014199)"><g><path d="M 3.140625 0.296875 C 2.265625 0.296875 1.640625 0 1.265625 -0.59375 C 0.890625 -1.195312 0.90625 -1.921875 1.3125 -2.765625 L 11.1875 -24.65625 C 11.507812 -25.375 11.898438 -25.890625 12.359375 -26.203125 C 12.828125 -26.515625 13.359375 -26.671875 13.953125 -26.671875 C 14.523438 -26.671875 15.039062 -26.515625 15.5 -26.203125 C 15.96875 -25.890625 16.363281 -25.375 16.6875 -24.65625 L 26.59375 -2.765625 C 26.988281 -1.890625 27.007812 -1.160156 26.65625 -0.578125 C 26.3125 0.00390625 25.71875 0.296875 24.875 0.296875 C 24.175781 0.296875 23.632812 0.128906 23.25 -0.203125 C 22.863281 -0.535156 22.519531 -1.054688 22.21875 -1.765625 L 20.34375 -6.09375 L 7.484375 -6.09375 L 5.640625 -1.765625 C 5.316406 -1.035156 4.976562 -0.507812 4.625 -0.1875 C 4.28125 0.132812 3.785156 0.296875 3.140625 0.296875 Z M 13.875 -21.171875 L 9.125 -9.90625 L 18.703125 -9.90625 L 13.953125 -21.171875 Z M 13.875 -21.171875 "/></g></g></g><g fill="#000000" fill-opacity="1"><g transform="translate(78.694749, 248.014199)"><g><path d="M 13.359375 0.296875 C 12.085938 0.296875 11.175781 -0.328125 10.625 -1.578125 L 0.859375 -23.484375 C 0.460938 -24.429688 0.484375 -25.195312 0.921875 -25.78125 C 1.359375 -26.375 2 -26.671875 2.84375 -26.671875 C 3.5625 -26.671875 4.101562 -26.515625 4.46875 -26.203125 C 4.832031 -25.890625 5.140625 -25.421875 5.390625 -24.796875 L 13.421875 -6.140625 L 21.46875 -24.84375 C 21.738281 -25.4375 22.0625 -25.890625 22.4375 -26.203125 C 22.8125 -26.515625 23.335938 -26.671875 24.015625 -26.671875 C 24.816406 -26.671875 25.421875 -26.367188 25.828125 -25.765625 C 26.242188 -25.171875 26.238281 -24.410156 25.8125 -23.484375 L 16.046875 -1.578125 C 15.773438 -0.953125 15.429688 -0.484375 15.015625 -0.171875 C 14.609375 0.140625 14.054688 0.296875 13.359375 0.296875 Z M 13.359375 0.296875 "/></g></g></g><g fill="#000000" fill-opacity="1"><g transform="translate(107.273502, 248.014199)"><g><path d="M 5.28125 0.296875 C 3.675781 0.296875 2.875 -0.523438 2.875 -2.171875 L 2.875 -24.203125 C 2.875 -25.847656 3.675781 -26.671875 5.28125 -26.671875 C 6.875 -26.671875 7.671875 -25.847656 7.671875 -24.203125 L 7.671875 -2.171875 C 7.671875 -0.523438 6.875 0.296875 5.28125 0.296875 Z M 5.28125 0.296875 "/></g></g></g><g fill="#000000" fill-opacity="1"><g transform="translate(119.730075, 248.014199)"><g><path d="M 5.421875 0 C 3.722656 0 2.875 -0.847656 2.875 -2.546875 L 2.875 -23.828125 C 2.875 -25.523438 3.722656 -26.375 5.421875 -26.375 L 18.78125 -26.375 C 20.070312 -26.375 20.71875 -25.75 20.71875 -24.5 C 20.71875 -23.207031 20.070312 -22.5625 18.78125 -22.5625 L 7.484375 -22.5625 L 7.484375 -15.296875 L 17.953125 -15.296875 C 19.253906 -15.296875 19.90625 -14.660156 19.90625 -13.390625 C 19.90625 -12.117188 19.253906 -11.484375 17.953125 -11.484375 L 7.484375 -11.484375 L 7.484375 -3.8125 L 18.78125 -3.8125 C 20.070312 -3.8125 20.71875 -3.175781 20.71875 -1.90625 C 20.71875 -0.632812 20.070312 0 18.78125 0 Z M 5.421875 0 "/></g></g></g><g fill="#000000" fill-opacity="1"><g transform="translate(143.96968, 248.014199)"><g><path d="M 5.28125 0.296875 C 3.675781 0.296875 2.875 -0.523438 2.875 -2.171875 L 2.875 -23.9375 C 2.875 -25.5625 3.6875 -26.375 5.3125 -26.375 L 14.328125 -26.375 C 17.222656 -26.375 19.453125 -25.679688 21.015625 -24.296875 C 22.585938 -22.910156 23.375 -20.972656 23.375 -18.484375 C 23.375 -16.515625 22.863281 -14.882812 21.84375 -13.59375 C 20.820312 -12.3125 19.351562 -11.445312 17.4375 -11 C 18.707031 -10.601562 19.753906 -9.640625 20.578125 -8.109375 L 23.375 -2.921875 C 23.800781 -2.117188 23.882812 -1.378906 23.625 -0.703125 C 23.363281 -0.0351562 22.722656 0.296875 21.703125 0.296875 C 21.023438 0.296875 20.472656 0.15625 20.046875 -0.125 C 19.617188 -0.414062 19.242188 -0.859375 18.921875 -1.453125 L 15.15625 -8.421875 C 14.695312 -9.265625 14.160156 -9.828125 13.546875 -10.109375 C 12.941406 -10.398438 12.164062 -10.546875 11.21875 -10.546875 L 7.671875 -10.546875 L 7.671875 -2.171875 C 7.671875 -0.523438 6.875 0.296875 5.28125 0.296875 Z M 7.671875 -14.109375 L 13.5 -14.109375 C 16.988281 -14.109375 18.734375 -15.523438 18.734375 -18.359375 C 18.734375 -21.179688 16.988281 -22.59375 13.5 -22.59375 L 7.671875 -22.59375 Z M 7.671875 -14.109375 "/></g></g></g><g fill="#000000" fill-opacity="1"><g transform="translate(171.538459, 248.014199)"><g/></g></g><g fill="#000000" fill-opacity="1"><g transform="translate(183.583552, 248.014199)"><g><path d="M 5.28125 0.296875 C 3.675781 0.296875 2.875 -0.523438 2.875 -2.171875 L 2.875 -23.9375 C 2.875 -25.5625 3.6875 -26.375 5.3125 -26.375 L 14.328125 -26.375 C 17.222656 -26.375 19.453125 -25.679688 21.015625 -24.296875 C 22.585938 -22.910156 23.375 -20.972656 23.375 -18.484375 C 23.375 -16.515625 22.863281 -14.882812 21.84375 -13.59375 C 20.820312 -12.3125 19.351562 -11.445312 17.4375 -11 C 18.707031 -10.601562 19.753906 -9.640625 20.578125 -8.109375 L 23.375 -2.921875 C 23.800781 -2.117188 23.882812 -1.378906 23.625 -0.703125 C 23.363281 -0.0351562 22.722656 0.296875 21.703125 0.296875 C 21.023438 0.296875 20.472656 0.15625 20.046875 -0.125 C 19.617188 -0.414062 19.242188 -0.859375 18.921875 -1.453125 L 15.15625 -8.421875 C 14.695312 -9.265625 14.160156 -9.828125 13.546875 -10.109375 C 12.941406 -10.398438 12.164062 -10.546875 11.21875 -10.546875 L 7.671875 -10.546875 L 7.671875 -2.171875 C 7.671875 -0.523438 6.875 0.296875 5.28125 0.296875 Z M 7.671875 -14.109375 L 13.5 -14.109375 C 16.988281 -14.109375 18.734375 -15.523438 18.734375 -18.359375 C 18.734375 -21.179688 16.988281 -22.59375 13.5 -22.59375 L 7.671875 -22.59375 Z M 7.671875 -14.109375 "/></g></g></g><g fill="#000000" fill-opacity="1"><g transform="translate(211.152331, 248.014199)"><g><path d="M 13.84375 0.375 C 10.226562 0.375 7.460938 -0.566406 5.546875 -2.453125 C 3.640625 -4.335938 2.6875 -7.125 2.6875 -10.8125 L 2.6875 -24.234375 C 2.6875 -25.859375 3.488281 -26.671875 5.09375 -26.671875 C 6.6875 -26.671875 7.484375 -25.859375 7.484375 -24.234375 L 7.484375 -10.84375 C 7.484375 -8.476562 8.023438 -6.703125 9.109375 -5.515625 C 10.191406 -4.328125 11.769531 -3.734375 13.84375 -3.734375 C 18.050781 -3.734375 20.15625 -6.101562 20.15625 -10.84375 L 20.15625 -24.234375 C 20.15625 -25.859375 20.957031 -26.671875 22.5625 -26.671875 C 24.125 -26.671875 24.90625 -25.859375 24.90625 -24.234375 L 24.90625 -10.8125 C 24.90625 -7.125 23.96875 -4.335938 22.09375 -2.453125 C 20.226562 -0.566406 17.476562 0.375 13.84375 0.375 Z M 13.84375 0.375 "/></g></g></g><g fill="#000000" fill-opacity="1"><g transform="translate(240.666245, 248.014199)"><g><path d="M 5.421875 0 C 3.722656 0 2.875 -0.847656 2.875 -2.546875 L 2.875 -23.828125 C 2.875 -25.523438 3.722656 -26.375 5.421875 -26.375 L 18.78125 -26.375 C 20.070312 -26.375 20.71875 -25.75 20.71875 -24.5 C 20.71875 -23.207031 20.070312 -22.5625 18.78125 -22.5625 L 7.484375 -22.5625 L 7.484375 -15.296875 L 17.953125 -15.296875 C 19.253906 -15.296875 19.90625 -14.660156 19.90625 -13.390625 C 19.90625 -12.117188 19.253906 -11.484375 17.953125 -11.484375 L 7.484375 -11.484375 L 7.484375 -3.8125 L 18.78125 -3.8125 C 20.070312 -3.8125 20.71875 -3.175781 20.71875 -1.90625 C 20.71875 -0.632812 20.070312 0 18.78125 0 Z M 5.421875 0 "/></g></g></g><g fill="#000000" fill-opacity="1"><g transform="translate(264.90585, 248.014199)"><g><path d="M 5.3125 0 C 3.6875 0 2.875 -0.820312 2.875 -2.46875 L 2.875 -24.046875 C 2.875 -25.671875 3.675781 -26.484375 5.28125 -26.484375 C 6.875 -26.484375 7.671875 -25.671875 7.671875 -24.046875 L 7.671875 -4.078125 L 18.515625 -4.078125 C 19.910156 -4.078125 20.609375 -3.40625 20.609375 -2.0625 C 20.609375 -0.6875 19.910156 0 18.515625 0 Z M 5.3125 0 "/></g></g></g><g fill="#000000" fill-opacity="1"><g transform="translate(287.836241, 248.014199)"><g><path d="M 3.140625 0.296875 C 2.265625 0.296875 1.640625 0 1.265625 -0.59375 C 0.890625 -1.195312 0.90625 -1.921875 1.3125 -2.765625 L 11.1875 -24.65625 C 11.507812 -25.375 11.898438 -25.890625 12.359375 -26.203125 C 12.828125 -26.515625 13.359375 -26.671875 13.953125 -26.671875 C 14.523438 -26.671875 15.039062 -26.515625 15.5 -26.203125 C 15.96875 -25.890625 16.363281 -25.375 16.6875 -24.65625 L 26.59375 -2.765625 C 26.988281 -1.890625 27.007812 -1.160156 26.65625 -0.578125 C 26.3125 0.00390625 25.71875 0.296875 24.875 0.296875 C 24.175781 0.296875 23.632812 0.128906 23.25 -0.203125 C 22.863281 -0.535156 22.519531 -1.054688 22.21875 -1.765625 L 20.34375 -6.09375 L 7.484375 -6.09375 L 5.640625 -1.765625 C 5.316406 -1.035156 4.976562 -0.507812 4.625 -0.1875 C 4.28125 0.132812 3.785156 0.296875 3.140625 0.296875 Z M 13.875 -21.171875 L 9.125 -9.90625 L 18.703125 -9.90625 L 13.953125 -21.171875 Z M 13.875 -21.171875 "/></g></g></g><g fill="#000000" fill-opacity="1"><g transform="translate(317.574595, 248.014199)"><g><path d="M 11.96875 0.375 C 10.300781 0.375 8.675781 0.1875 7.09375 -0.1875 C 5.507812 -0.5625 4.128906 -1.125 2.953125 -1.875 C 2.378906 -2.25 2.03125 -2.707031 1.90625 -3.25 C 1.78125 -3.800781 1.820312 -4.316406 2.03125 -4.796875 C 2.25 -5.285156 2.585938 -5.625 3.046875 -5.8125 C 3.503906 -6 4.035156 -5.90625 4.640625 -5.53125 C 5.734375 -4.882812 6.890625 -4.410156 8.109375 -4.109375 C 9.335938 -3.816406 10.625 -3.671875 11.96875 -3.671875 C 13.9375 -3.671875 15.367188 -4 16.265625 -4.65625 C 17.171875 -5.3125 17.625 -6.164062 17.625 -7.21875 C 17.625 -8.09375 17.300781 -8.78125 16.65625 -9.28125 C 16.019531 -9.78125 14.929688 -10.191406 13.390625 -10.515625 L 9.28125 -11.375 C 4.59375 -12.375 2.25 -14.78125 2.25 -18.59375 C 2.25 -20.238281 2.679688 -21.671875 3.546875 -22.890625 C 4.421875 -24.109375 5.628906 -25.054688 7.171875 -25.734375 C 8.722656 -26.410156 10.507812 -26.75 12.53125 -26.75 C 14.03125 -26.75 15.453125 -26.5625 16.796875 -26.1875 C 18.140625 -25.8125 19.347656 -25.257812 20.421875 -24.53125 C 20.921875 -24.1875 21.21875 -23.757812 21.3125 -23.25 C 21.414062 -22.738281 21.351562 -22.265625 21.125 -21.828125 C 20.90625 -21.390625 20.550781 -21.085938 20.0625 -20.921875 C 19.582031 -20.765625 19.015625 -20.875 18.359375 -21.25 C 17.441406 -21.769531 16.507812 -22.140625 15.5625 -22.359375 C 14.613281 -22.585938 13.59375 -22.703125 12.5 -22.703125 C 10.769531 -22.703125 9.421875 -22.335938 8.453125 -21.609375 C 7.484375 -20.890625 7 -19.945312 7 -18.78125 C 7 -17.882812 7.296875 -17.164062 7.890625 -16.625 C 8.492188 -16.09375 9.515625 -15.675781 10.953125 -15.375 L 15.03125 -14.515625 C 17.5 -13.992188 19.335938 -13.171875 20.546875 -12.046875 C 21.765625 -10.921875 22.375 -9.425781 22.375 -7.5625 C 22.375 -5.988281 21.945312 -4.601562 21.09375 -3.40625 C 20.25 -2.207031 19.046875 -1.273438 17.484375 -0.609375 C 15.929688 0.046875 14.09375 0.375 11.96875 0.375 Z M 11.96875 0.375 "/></g></g></g><g fill="#000000" fill-opacity="1"><g transform="translate(115.37497, 270.699767)"><g><path d="M 2.234375 0 C 1.335938 0 0.890625 -0.441406 0.890625 -1.328125 L 0.890625 -8.546875 C 0.890625 -9.429688 1.335938 -9.875 2.234375 -9.875 L 6.984375 -9.875 C 7.660156 -9.875 8 -9.546875 8 -8.890625 C 8 -8.210938 7.660156 -7.875 6.984375 -7.875 L 3.359375 -7.875 L 3.359375 -6 L 6.671875 -6 C 7.347656 -6 7.6875 -5.671875 7.6875 -5.015625 C 7.6875 -4.347656 7.347656 -4.015625 6.671875 -4.015625 L 3.359375 -4.015625 L 3.359375 -1.984375 L 6.984375 -1.984375 C 7.660156 -1.984375 8 -1.65625 8 -1 C 8 -0.332031 7.660156 0 6.984375 0 Z M 2.234375 0 "/></g></g></g><g fill="#000000" fill-opacity="1"><g transform="translate(130.630186, 270.699767)"><g><path d="M 5.875 0.15625 C 4.78125 0.15625 3.84375 -0.0507812 3.0625 -0.46875 C 2.28125 -0.894531 1.679688 -1.488281 1.265625 -2.25 C 0.847656 -3.019531 0.640625 -3.914062 0.640625 -4.9375 C 0.640625 -5.96875 0.847656 -6.863281 1.265625 -7.625 C 1.679688 -8.382812 2.28125 -8.972656 3.0625 -9.390625 C 3.84375 -9.816406 4.78125 -10.03125 5.875 -10.03125 C 6.3125 -10.03125 6.757812 -9.976562 7.21875 -9.875 C 7.675781 -9.78125 8.082031 -9.632812 8.4375 -9.4375 C 8.695312 -9.289062 8.878906 -9.109375 8.984375 -8.890625 C 9.085938 -8.679688 9.125 -8.460938 9.09375 -8.234375 C 9.070312 -8.015625 8.992188 -7.816406 8.859375 -7.640625 C 8.722656 -7.460938 8.550781 -7.34375 8.34375 -7.28125 C 8.132812 -7.226562 7.910156 -7.257812 7.671875 -7.375 C 7.117188 -7.644531 6.554688 -7.78125 5.984375 -7.78125 C 5.109375 -7.78125 4.453125 -7.535156 4.015625 -7.046875 C 3.578125 -6.554688 3.359375 -5.851562 3.359375 -4.9375 C 3.359375 -4.019531 3.578125 -3.316406 4.015625 -2.828125 C 4.453125 -2.335938 5.109375 -2.09375 5.984375 -2.09375 C 6.222656 -2.09375 6.484375 -2.117188 6.765625 -2.171875 C 7.046875 -2.234375 7.320312 -2.332031 7.59375 -2.46875 C 7.875 -2.582031 8.125 -2.613281 8.34375 -2.5625 C 8.5625 -2.507812 8.738281 -2.394531 8.875 -2.21875 C 9.019531 -2.050781 9.109375 -1.859375 9.140625 -1.640625 C 9.171875 -1.421875 9.140625 -1.203125 9.046875 -0.984375 C 8.953125 -0.773438 8.78125 -0.601562 8.53125 -0.46875 C 8.195312 -0.28125 7.789062 -0.128906 7.3125 -0.015625 C 6.832031 0.0976562 6.351562 0.15625 5.875 0.15625 Z M 5.875 0.15625 "/></g></g></g><g fill="#000000" fill-opacity="1"><g transform="translate(146.92083, 270.699767)"><g><path d="M 5.65625 0.15625 C 4.65625 0.15625 3.78125 -0.0546875 3.03125 -0.484375 C 2.28125 -0.910156 1.691406 -1.503906 1.265625 -2.265625 C 0.847656 -3.035156 0.640625 -3.925781 0.640625 -4.9375 C 0.640625 -5.96875 0.847656 -6.863281 1.265625 -7.625 C 1.679688 -8.382812 2.265625 -8.972656 3.015625 -9.390625 C 3.773438 -9.816406 4.65625 -10.03125 5.65625 -10.03125 C 6.65625 -10.03125 7.53125 -9.816406 8.28125 -9.390625 C 9.03125 -8.972656 9.613281 -8.382812 10.03125 -7.625 C 10.457031 -6.863281 10.671875 -5.96875 10.671875 -4.9375 C 10.671875 -3.925781 10.457031 -3.035156 10.03125 -2.265625 C 9.613281 -1.503906 9.03125 -0.910156 8.28125 -0.484375 C 7.53125 -0.0546875 6.65625 0.15625 5.65625 0.15625 Z M 5.65625 -2 C 6.382812 -2 6.957031 -2.257812 7.375 -2.78125 C 7.789062 -3.300781 8 -4.019531 8 -4.9375 C 8 -5.863281 7.789062 -6.582031 7.375 -7.09375 C 6.96875 -7.613281 6.394531 -7.875 5.65625 -7.875 C 4.914062 -7.875 4.335938 -7.613281 3.921875 -7.09375 C 3.515625 -6.582031 3.3125 -5.863281 3.3125 -4.9375 C 3.3125 -4.019531 3.515625 -3.300781 3.921875 -2.78125 C 4.335938 -2.257812 4.914062 -2 5.65625 -2 Z M 5.65625 -2 "/></g></g></g><g fill="#000000" fill-opacity="1"><g transform="translate(164.876546, 270.699767)"><g><path d="M 2.09375 0.125 C 1.71875 0.125 1.425781 0.0234375 1.21875 -0.171875 C 1.019531 -0.378906 0.921875 -0.671875 0.921875 -1.046875 L 0.921875 -8.8125 C 0.921875 -9.195312 1.023438 -9.488281 1.234375 -9.6875 C 1.453125 -9.894531 1.757812 -10 2.15625 -10 C 2.46875 -10 2.722656 -9.9375 2.921875 -9.8125 C 3.117188 -9.6875 3.296875 -9.476562 3.453125 -9.1875 L 6.21875 -4.21875 L 8.96875 -9.1875 C 9.132812 -9.476562 9.3125 -9.6875 9.5 -9.8125 C 9.695312 -9.9375 9.960938 -10 10.296875 -10 C 10.660156 -10 10.941406 -9.894531 11.140625 -9.6875 C 11.347656 -9.488281 11.453125 -9.195312 11.453125 -8.8125 L 11.453125 -1.046875 C 11.453125 -0.671875 11.351562 -0.378906 11.15625 -0.171875 C 10.957031 0.0234375 10.671875 0.125 10.296875 0.125 C 9.921875 0.125 9.628906 0.0234375 9.421875 -0.171875 C 9.222656 -0.378906 9.125 -0.671875 9.125 -1.046875 L 9.125 -5.359375 L 7.171875 -1.953125 C 7.035156 -1.742188 6.894531 -1.585938 6.75 -1.484375 C 6.601562 -1.378906 6.410156 -1.328125 6.171875 -1.328125 C 5.941406 -1.328125 5.75 -1.378906 5.59375 -1.484375 C 5.445312 -1.585938 5.3125 -1.742188 5.1875 -1.953125 L 3.25 -5.3125 L 3.25 -1.046875 C 3.25 -0.671875 3.148438 -0.378906 2.953125 -0.171875 C 2.753906 0.0234375 2.46875 0.125 2.09375 0.125 Z M 2.09375 0.125 "/></g></g></g><g fill="#000000" fill-opacity="1"><g transform="translate(183.909649, 270.699767)"><g><path d="M 2.09375 0.125 C 1.71875 0.125 1.425781 0.0234375 1.21875 -0.171875 C 1.019531 -0.378906 0.921875 -0.671875 0.921875 -1.046875 L 0.921875 -8.8125 C 0.921875 -9.195312 1.023438 -9.488281 1.234375 -9.6875 C 1.453125 -9.894531 1.757812 -10 2.15625 -10 C 2.46875 -10 2.722656 -9.9375 2.921875 -9.8125 C 3.117188 -9.6875 3.296875 -9.476562 3.453125 -9.1875 L 6.21875 -4.21875 L 8.96875 -9.1875 C 9.132812 -9.476562 9.3125 -9.6875 9.5 -9.8125 C 9.695312 -9.9375 9.960938 -10 10.296875 -10 C 10.660156 -10 10.941406 -9.894531 11.140625 -9.6875 C 11.347656 -9.488281 11.453125 -9.195312 11.453125 -8.8125 L 11.453125 -1.046875 C 11.453125 -0.671875 11.351562 -0.378906 11.15625 -0.171875 C 10.957031 0.0234375 10.671875 0.125 10.296875 0.125 C 9.921875 0.125 9.628906 0.0234375 9.421875 -0.171875 C 9.222656 -0.378906 9.125 -0.671875 9.125 -1.046875 L 9.125 -5.359375 L 7.171875 -1.953125 C 7.035156 -1.742188 6.894531 -1.585938 6.75 -1.484375 C 6.601562 -1.378906 6.410156 -1.328125 6.171875 -1.328125 C 5.941406 -1.328125 5.75 -1.378906 5.59375 -1.484375 C 5.445312 -1.585938 5.3125 -1.742188 5.1875 -1.953125 L 3.25 -5.3125 L 3.25 -1.046875 C 3.25 -0.671875 3.148438 -0.378906 2.953125 -0.171875 C 2.753906 0.0234375 2.46875 0.125 2.09375 0.125 Z M 2.09375 0.125 "/></g></g></g><g fill="#000000" fill-opacity="1"><g transform="translate(202.942751, 270.699767)"><g><path d="M 2.234375 0 C 1.335938 0 0.890625 -0.441406 0.890625 -1.328125 L 0.890625 -8.546875 C 0.890625 -9.429688 1.335938 -9.875 2.234375 -9.875 L 6.984375 -9.875 C 7.660156 -9.875 8 -9.546875 8 -8.890625 C 8 -8.210938 7.660156 -7.875 6.984375 -7.875 L 3.359375 -7.875 L 3.359375 -6 L 6.671875 -6 C 7.347656 -6 7.6875 -5.671875 7.6875 -5.015625 C 7.6875 -4.347656 7.347656 -4.015625 6.671875 -4.015625 L 3.359375 -4.015625 L 3.359375 -1.984375 L 6.984375 -1.984375 C 7.660156 -1.984375 8 -1.65625 8 -1 C 8 -0.332031 7.660156 0 6.984375 0 Z M 2.234375 0 "/></g></g></g><g fill="#000000" fill-opacity="1"><g transform="translate(218.197965, 270.699767)"><g><path d="M 2.1875 0.125 C 1.769531 0.125 1.445312 0.015625 1.21875 -0.203125 C 1 -0.429688 0.890625 -0.753906 0.890625 -1.171875 L 0.890625 -8.5625 C 0.890625 -8.988281 1 -9.3125 1.21875 -9.53125 C 1.445312 -9.757812 1.773438 -9.875 2.203125 -9.875 L 5.640625 -9.875 C 6.765625 -9.875 7.628906 -9.597656 8.234375 -9.046875 C 8.847656 -8.503906 9.15625 -7.75 9.15625 -6.78125 C 9.15625 -6.039062 8.96875 -5.421875 8.59375 -4.921875 C 8.226562 -4.421875 7.695312 -4.070312 7 -3.875 C 7.519531 -3.738281 7.941406 -3.378906 8.265625 -2.796875 L 8.953125 -1.546875 C 9.109375 -1.265625 9.175781 -0.992188 9.15625 -0.734375 C 9.144531 -0.484375 9.046875 -0.273438 8.859375 -0.109375 C 8.671875 0.046875 8.394531 0.125 8.03125 0.125 C 7.664062 0.125 7.367188 0.0507812 7.140625 -0.09375 C 6.910156 -0.238281 6.707031 -0.472656 6.53125 -0.796875 L 5.265625 -3.140625 C 5.148438 -3.335938 5.003906 -3.476562 4.828125 -3.5625 C 4.660156 -3.644531 4.460938 -3.6875 4.234375 -3.6875 L 3.46875 -3.6875 L 3.46875 -1.171875 C 3.46875 -0.753906 3.359375 -0.429688 3.140625 -0.203125 C 2.921875 0.015625 2.601562 0.125 2.1875 0.125 Z M 3.46875 -5.5 L 5.1875 -5.5 C 6.195312 -5.5 6.703125 -5.898438 6.703125 -6.703125 C 6.703125 -7.492188 6.195312 -7.890625 5.1875 -7.890625 L 3.46875 -7.890625 Z M 3.46875 -5.5 "/></g></g></g><g fill="#000000" fill-opacity="1"><g transform="translate(234.740456, 270.699767)"><g><path d="M 5.875 0.15625 C 4.78125 0.15625 3.84375 -0.0507812 3.0625 -0.46875 C 2.28125 -0.894531 1.679688 -1.488281 1.265625 -2.25 C 0.847656 -3.019531 0.640625 -3.914062 0.640625 -4.9375 C 0.640625 -5.96875 0.847656 -6.863281 1.265625 -7.625 C 1.679688 -8.382812 2.28125 -8.972656 3.0625 -9.390625 C 3.84375 -9.816406 4.78125 -10.03125 5.875 -10.03125 C 6.3125 -10.03125 6.757812 -9.976562 7.21875 -9.875 C 7.675781 -9.78125 8.082031 -9.632812 8.4375 -9.4375 C 8.695312 -9.289062 8.878906 -9.109375 8.984375 -8.890625 C 9.085938 -8.679688 9.125 -8.460938 9.09375 -8.234375 C 9.070312 -8.015625 8.992188 -7.816406 8.859375 -7.640625 C 8.722656 -7.460938 8.550781 -7.34375 8.34375 -7.28125 C 8.132812 -7.226562 7.910156 -7.257812 7.671875 -7.375 C 7.117188 -7.644531 6.554688 -7.78125 5.984375 -7.78125 C 5.109375 -7.78125 4.453125 -7.535156 4.015625 -7.046875 C 3.578125 -6.554688 3.359375 -5.851562 3.359375 -4.9375 C 3.359375 -4.019531 3.578125 -3.316406 4.015625 -2.828125 C 4.453125 -2.335938 5.109375 -2.09375 5.984375 -2.09375 C 6.222656 -2.09375 6.484375 -2.117188 6.765625 -2.171875 C 7.046875 -2.234375 7.320312 -2.332031 7.59375 -2.46875 C 7.875 -2.582031 8.125 -2.613281 8.34375 -2.5625 C 8.5625 -2.507812 8.738281 -2.394531 8.875 -2.21875 C 9.019531 -2.050781 9.109375 -1.859375 9.140625 -1.640625 C 9.171875 -1.421875 9.140625 -1.203125 9.046875 -0.984375 C 8.953125 -0.773438 8.78125 -0.601562 8.53125 -0.46875 C 8.195312 -0.28125 7.789062 -0.128906 7.3125 -0.015625 C 6.832031 0.0976562 6.351562 0.15625 5.875 0.15625 Z M 5.875 0.15625 "/></g></g></g><g fill="#000000" fill-opacity="1"><g transform="translate(251.031097, 270.699767)"><g><path d="M 2.234375 0 C 1.335938 0 0.890625 -0.441406 0.890625 -1.328125 L 0.890625 -8.546875 C 0.890625 -9.429688 1.335938 -9.875 2.234375 -9.875 L 6.984375 -9.875 C 7.660156 -9.875 8 -9.546875 8 -8.890625 C 8 -8.210938 7.660156 -7.875 6.984375 -7.875 L 3.359375 -7.875 L 3.359375 -6 L 6.671875 -6 C 7.347656 -6 7.6875 -5.671875 7.6875 -5.015625 C 7.6875 -4.347656 7.347656 -4.015625 6.671875 -4.015625 L 3.359375 -4.015625 L 3.359375 -1.984375 L 6.984375 -1.984375 C 7.660156 -1.984375 8 -1.65625 8 -1 C 8 -0.332031 7.660156 0 6.984375 0 Z M 2.234375 0 "/></g></g></g></svg>