<svg xmlns="http://www.w3.org/2000/svg" xmlns:xlink="http://www.w3.org/1999/xlink" width="500" zoomAndPan="magnify" viewBox="0 0 375 374.999991" height="500" preserveAspectRatio="xMidYMid meet" version="1.0"><defs><g/></defs><g fill="#000000" fill-opacity="1"><g transform="translate(33.806566, 199.718976)"><g><path d="M 1.71875 0.265625 C 1.019531 0.285156 0.46875 0.0976562 0.0625 -0.296875 C -0.332031 -0.691406 -0.53125 -1.203125 -0.53125 -1.828125 C -0.53125 -2.304688 -0.382812 -2.722656 -0.09375 -3.078125 C 0.195312 -3.441406 0.613281 -3.640625 1.15625 -3.671875 L 2.28125 -3.734375 C 4.5 -3.890625 5.609375 -5.113281 5.609375 -7.40625 L 5.609375 -24.234375 C 5.609375 -25.859375 6.40625 -26.671875 8 -26.671875 C 9.601562 -26.671875 10.40625 -25.859375 10.40625 -24.234375 L 10.40625 -7.4375 C 10.40625 -5.09375 9.78125 -3.269531 8.53125 -1.96875 C 7.28125 -0.675781 5.4375 0.0390625 3 0.1875 Z M 1.71875 0.265625 "/></g></g></g><g fill="#000000" fill-opacity="1"><g transform="translate(48.956395, 199.718976)"><g><path d="M 3.140625 0.296875 C 2.265625 0.296875 1.640625 0 1.265625 -0.59375 C 0.890625 -1.195312 0.90625 -1.921875 1.3125 -2.765625 L 11.1875 -24.65625 C 11.507812 -25.375 11.898438 -25.890625 12.359375 -26.203125 C 12.828125 -26.515625 13.359375 -26.671875 13.953125 -26.671875 C 14.523438 -26.671875 15.039062 -26.515625 15.5 -26.203125 C 15.96875 -25.890625 16.363281 -25.375 16.6875 -24.65625 L 26.59375 -2.765625 C 26.988281 -1.890625 27.007812 -1.160156 26.65625 -0.578125 C 26.3125 0.00390625 25.71875 0.296875 24.875 0.296875 C 24.175781 0.296875 23.632812 0.128906 23.25 -0.203125 C 22.863281 -0.535156 22.519531 -1.054688 22.21875 -1.765625 L 20.34375 -6.09375 L 7.484375 -6.09375 L 5.640625 -1.765625 C 5.316406 -1.035156 4.976562 -0.507812 4.625 -0.1875 C 4.28125 0.132812 3.785156 0.296875 3.140625 0.296875 Z M 13.875 -21.171875 L 9.125 -9.90625 L 18.703125 -9.90625 L 13.953125 -21.171875 Z M 13.875 -21.171875 "/></g></g></g><g fill="#000000" fill-opacity="1"><g transform="translate(78.694749, 199.718976)"><g><path d="M 13.359375 0.296875 C 12.085938 0.296875 11.175781 -0.328125 10.625 -1.578125 L 0.859375 -23.484375 C 0.460938 -24.429688 0.484375 -25.195312 0.921875 -25.78125 C 1.359375 -26.375 2 -26.671875 2.84375 -26.671875 C 3.5625 -26.671875 4.101562 -26.515625 4.46875 -26.203125 C 4.832031 -25.890625 5.140625 -25.421875 5.390625 -24.796875 L 13.421875 -6.140625 L 21.46875 -24.84375 C 21.738281 -25.4375 22.0625 -25.890625 22.4375 -26.203125 C 22.8125 -26.515625 23.335938 -26.671875 24.015625 -26.671875 C 24.816406 -26.671875 25.421875 -26.367188 25.828125 -25.765625 C 26.242188 -25.171875 26.238281 -24.410156 25.8125 -23.484375 L 16.046875 -1.578125 C 15.773438 -0.953125 15.429688 -0.484375 15.015625 -0.171875 C 14.609375 0.140625 14.054688 0.296875 13.359375 0.296875 Z M 13.359375 0.296875 "/></g></g></g><g fill="#000000" fill-opacity="1"><g transform="translate(107.273502, 199.718976)"><g><path d="M 5.28125 0.296875 C 3.675781 0.296875 2.875 -0.523438 2.875 -2.171875 L 2.875 -24.203125 C 2.875 -25.847656 3.675781 -26.671875 5.28125 -26.671875 C 6.875 -26.671875 7.671875 -25.847656 7.671875 -24.203125 L 7.671875 -2.171875 C 7.671875 -0.523438 6.875 0.296875 5.28125 0.296875 Z M 5.28125 0.296875 "/></g></g></g><g fill="#000000" fill-opacity="1"><g transform="translate(119.730075, 199.718976)"><g><path d="M 5.421875 0 C 3.722656 0 2.875 -0.847656 2.875 -2.546875 L 2.875 -23.828125 C 2.875 -25.523438 3.722656 -26.375 5.421875 -26.375 L 18.78125 -26.375 C 20.070312 -26.375 20.71875 -25.75 20.71875 -24.5 C 20.71875 -23.207031 20.070312 -22.5625 18.78125 -22.5625 L 7.484375 -22.5625 L 7.484375 -15.296875 L 17.953125 -15.296875 C 19.253906 -15.296875 19.90625 -14.660156 19.90625 -13.390625 C 19.90625 -12.117188 19.253906 -11.484375 17.953125 -11.484375 L 7.484375 -11.484375 L 7.484375 -3.8125 L 18.78125 -3.8125 C 20.070312 -3.8125 20.71875 -3.175781 20.71875 -1.90625 C 20.71875 -0.632812 20.070312 0 18.78125 0 Z M 5.421875 0 "/></g></g></g><g fill="#000000" fill-opacity="1"><g transform="translate(143.96968, 199.718976)"><g><path d="M 5.28125 0.296875 C 3.675781 0.296875 2.875 -0.523438 2.875 -2.171875 L 2.875 -23.9375 C 2.875 -25.5625 3.6875 -26.375 5.3125 -26.375 L 14.328125 -26.375 C 17.222656 -26.375 19.453125 -25.679688 21.015625 -24.296875 C 22.585938 -22.910156 23.375 -20.972656 23.375 -18.484375 C 23.375 -16.515625 22.863281 -14.882812 21.84375 -13.59375 C 20.820312 -12.3125 19.351562 -11.445312 17.4375 -11 C 18.707031 -10.601562 19.753906 -9.640625 20.578125 -8.109375 L 23.375 -2.921875 C 23.800781 -2.117188 23.882812 -1.378906 23.625 -0.703125 C 23.363281 -0.0351562 22.722656 0.296875 21.703125 0.296875 C 21.023438 0.296875 20.472656 0.15625 20.046875 -0.125 C 19.617188 -0.414062 19.242188 -0.859375 18.921875 -1.453125 L 15.15625 -8.421875 C 14.695312 -9.265625 14.160156 -9.828125 13.546875 -10.109375 C 12.941406 -10.398438 12.164062 -10.546875 11.21875 -10.546875 L 7.671875 -10.546875 L 7.671875 -2.171875 C 7.671875 -0.523438 6.875 0.296875 5.28125 0.296875 Z M 7.671875 -14.109375 L 13.5 -14.109375 C 16.988281 -14.109375 18.734375 -15.523438 18.734375 -18.359375 C 18.734375 -21.179688 16.988281 -22.59375 13.5 -22.59375 L 7.671875 -22.59375 Z M 7.671875 -14.109375 "/></g></g></g><g fill="#000000" fill-opacity="1"><g transform="translate(171.538459, 199.718976)"><g/></g></g><g fill="#000000" fill-opacity="1"><g transform="translate(183.583552, 199.718976)"><g><path d="M 5.28125 0.296875 C 3.675781 0.296875 2.875 -0.523438 2.875 -2.171875 L 2.875 -23.9375 C 2.875 -25.5625 3.6875 -26.375 5.3125 -26.375 L 14.328125 -26.375 C 17.222656 -26.375 19.453125 -25.679688 21.015625 -24.296875 C 22.585938 -22.910156 23.375 -20.972656 23.375 -18.484375 C 23.375 -16.515625 22.863281 -14.882812 21.84375 -13.59375 C 20.820312 -12.3125 19.351562 -11.445312 17.4375 -11 C 18.707031 -10.601562 19.753906 -9.640625 20.578125 -8.109375 L 23.375 -2.921875 C 23.800781 -2.117188 23.882812 -1.378906 23.625 -0.703125 C 23.363281 -0.0351562 22.722656 0.296875 21.703125 0.296875 C 21.023438 0.296875 20.472656 0.15625 20.046875 -0.125 C 19.617188 -0.414062 19.242188 -0.859375 18.921875 -1.453125 L 15.15625 -8.421875 C 14.695312 -9.265625 14.160156 -9.828125 13.546875 -10.109375 C 12.941406 -10.398438 12.164062 -10.546875 11.21875 -10.546875 L 7.671875 -10.546875 L 7.671875 -2.171875 C 7.671875 -0.523438 6.875 0.296875 5.28125 0.296875 Z M 7.671875 -14.109375 L 13.5 -14.109375 C 16.988281 -14.109375 18.734375 -15.523438 18.734375 -18.359375 C 18.734375 -21.179688 16.988281 -22.59375 13.5 -22.59375 L 7.671875 -22.59375 Z M 7.671875 -14.109375 "/></g></g></g><g fill="#000000" fill-opacity="1"><g transform="translate(211.152331, 199.718976)"><g><path d="M 13.84375 0.375 C 10.226562 0.375 7.460938 -0.566406 5.546875 -2.453125 C 3.640625 -4.335938 2.6875 -7.125 2.6875 -10.8125 L 2.6875 -24.234375 C 2.6875 -25.859375 3.488281 -26.671875 5.09375 -26.671875 C 6.6875 -26.671875 7.484375 -25.859375 7.484375 -24.234375 L 7.484375 -10.84375 C 7.484375 -8.476562 8.023438 -6.703125 9.109375 -5.515625 C 10.191406 -4.328125 11.769531 -3.734375 13.84375 -3.734375 C 18.050781 -3.734375 20.15625 -6.101562 20.15625 -10.84375 L 20.15625 -24.234375 C 20.15625 -25.859375 20.957031 -26.671875 22.5625 -26.671875 C 24.125 -26.671875 24.90625 -25.859375 24.90625 -24.234375 L 24.90625 -10.8125 C 24.90625 -7.125 23.96875 -4.335938 22.09375 -2.453125 C 20.226562 -0.566406 17.476562 0.375 13.84375 0.375 Z M 13.84375 0.375 "/></g></g></g><g fill="#000000" fill-opacity="1"><g transform="translate(240.666245, 199.718976)"><g><path d="M 5.421875 0 C 3.722656 0 2.875 -0.847656 2.875 -2.546875 L 2.875 -23.828125 C 2.875 -25.523438 3.722656 -26.375 5.421875 -26.375 L 18.78125 -26.375 C 20.070312 -26.375 20.71875 -25.75 20.71875 -24.5 C 20.71875 -23.207031 20.070312 -22.5625 18.78125 -22.5625 L 7.484375 -22.5625 L 7.484375 -15.296875 L 17.953125 -15.296875 C 19.253906 -15.296875 19.90625 -14.660156 19.90625 -13.390625 C 19.90625 -12.117188 19.253906 -11.484375 17.953125 -11.484375 L 7.484375 -11.484375 L 7.484375 -3.8125 L 18.78125 -3.8125 C 20.070312 -3.8125 20.71875 -3.175781 20.71875 -1.90625 C 20.71875 -0.632812 20.070312 0 18.78125 0 Z M 5.421875 0 "/></g></g></g><g fill="#000000" fill-opacity="1"><g transform="translate(264.90585, 199.718976)"><g><path d="M 5.3125 0 C 3.6875 0 2.875 -0.820312 2.875 -2.46875 L 2.875 -24.046875 C 2.875 -25.671875 3.675781 -26.484375 5.28125 -26.484375 C 6.875 -26.484375 7.671875 -25.671875 7.671875 -24.046875 L 7.671875 -4.078125 L 18.515625 -4.078125 C 19.910156 -4.078125 20.609375 -3.40625 20.609375 -2.0625 C 20.609375 -0.6875 19.910156 0 18.515625 0 Z M 5.3125 0 "/></g></g></g><g fill="#000000" fill-opacity="1"><g transform="translate(287.836241, 199.718976)"><g><path d="M 3.140625 0.296875 C 2.265625 0.296875 1.640625 0 1.265625 -0.59375 C 0.890625 -1.195312 0.90625 -1.921875 1.3125 -2.765625 L 11.1875 -24.65625 C 11.507812 -25.375 11.898438 -25.890625 12.359375 -26.203125 C 12.828125 -26.515625 13.359375 -26.671875 13.953125 -26.671875 C 14.523438 -26.671875 15.039062 -26.515625 15.5 -26.203125 C 15.96875 -25.890625 16.363281 -25.375 16.6875 -24.65625 L 26.59375 -2.765625 C 26.988281 -1.890625 27.007812 -1.160156 26.65625 -0.578125 C 26.3125 0.00390625 25.71875 0.296875 24.875 0.296875 C 24.175781 0.296875 23.632812 0.128906 23.25 -0.203125 C 22.863281 -0.535156 22.519531 -1.054688 22.21875 -1.765625 L 20.34375 -6.09375 L 7.484375 -6.09375 L 5.640625 -1.765625 C 5.316406 -1.035156 4.976562 -0.507812 4.625 -0.1875 C 4.28125 0.132812 3.785156 0.296875 3.140625 0.296875 Z M 13.875 -21.171875 L 9.125 -9.90625 L 18.703125 -9.90625 L 13.953125 -21.171875 Z M 13.875 -21.171875 "/></g></g></g><g fill="#000000" fill-opacity="1"><g transform="translate(317.574595, 199.718976)"><g><path d="M 11.96875 0.375 C 10.300781 0.375 8.675781 0.1875 7.09375 -0.1875 C 5.507812 -0.5625 4.128906 -1.125 2.953125 -1.875 C 2.378906 -2.25 2.03125 -2.707031 1.90625 -3.25 C 1.78125 -3.800781 1.820312 -4.316406 2.03125 -4.796875 C 2.25 -5.285156 2.585938 -5.625 3.046875 -5.8125 C 3.503906 -6 4.035156 -5.90625 4.640625 -5.53125 C 5.734375 -4.882812 6.890625 -4.410156 8.109375 -4.109375 C 9.335938 -3.816406 10.625 -3.671875 11.96875 -3.671875 C 13.9375 -3.671875 15.367188 -4 16.265625 -4.65625 C 17.171875 -5.3125 17.625 -6.164062 17.625 -7.21875 C 17.625 -8.09375 17.300781 -8.78125 16.65625 -9.28125 C 16.019531 -9.78125 14.929688 -10.191406 13.390625 -10.515625 L 9.28125 -11.375 C 4.59375 -12.375 2.25 -14.78125 2.25 -18.59375 C 2.25 -20.238281 2.679688 -21.671875 3.546875 -22.890625 C 4.421875 -24.109375 5.628906 -25.054688 7.171875 -25.734375 C 8.722656 -26.410156 10.507812 -26.75 12.53125 -26.75 C 14.03125 -26.75 15.453125 -26.5625 16.796875 -26.1875 C 18.140625 -25.8125 19.347656 -25.257812 20.421875 -24.53125 C 20.921875 -24.1875 21.21875 -23.757812 21.3125 -23.25 C 21.414062 -22.738281 21.351562 -22.265625 21.125 -21.828125 C 20.90625 -21.390625 20.550781 -21.085938 20.0625 -20.921875 C 19.582031 -20.765625 19.015625 -20.875 18.359375 -21.25 C 17.441406 -21.769531 16.507812 -22.140625 15.5625 -22.359375 C 14.613281 -22.585938 13.59375 -22.703125 12.5 -22.703125 C 10.769531 -22.703125 9.421875 -22.335938 8.453125 -21.609375 C 7.484375 -20.890625 7 -19.945312 7 -18.78125 C 7 -17.882812 7.296875 -17.164062 7.890625 -16.625 C 8.492188 -16.09375 9.515625 -15.675781 10.953125 -15.375 L 15.03125 -14.515625 C 17.5 -13.992188 19.335938 -13.171875 20.546875 -12.046875 C 21.765625 -10.921875 22.375 -9.425781 22.375 -7.5625 C 22.375 -5.988281 21.945312 -4.601562 21.09375 -3.40625 C 20.25 -2.207031 19.046875 -1.273438 17.484375 -0.609375 C 15.929688 0.046875 14.09375 0.375 11.96875 0.375 Z M 11.96875 0.375 "/></g></g></g><g fill="#000000" fill-opacity="1"><g transform="translate(115.37497, 222.404457)"><g><path d="M 2.234375 0 C 1.335938 0 0.890625 -0.441406 0.890625 -1.328125 L 0.890625 -8.546875 C 0.890625 -9.429688 1.335938 -9.875 2.234375 -9.875 L 6.984375 -9.875 C 7.660156 -9.875 8 -9.546875 8 -8.890625 C 8 -8.210938 7.660156 -7.875 6.984375 -7.875 L 3.359375 -7.875 L 3.359375 -6 L 6.671875 -6 C 7.347656 -6 7.6875 -5.671875 7.6875 -5.015625 C 7.6875 -4.347656 7.347656 -4.015625 6.671875 -4.015625 L 3.359375 -4.015625 L 3.359375 -1.984375 L 6.984375 -1.984375 C 7.660156 -1.984375 8 -1.65625 8 -1 C 8 -0.332031 7.660156 0 6.984375 0 Z M 2.234375 0 "/></g></g></g><g fill="#000000" fill-opacity="1"><g transform="translate(130.630186, 222.404457)"><g><path d="M 5.875 0.15625 C 4.78125 0.15625 3.84375 -0.0507812 3.0625 -0.46875 C 2.28125 -0.894531 1.679688 -1.488281 1.265625 -2.25 C 0.847656 -3.019531 0.640625 -3.914062 0.640625 -4.9375 C 0.640625 -5.96875 0.847656 -6.863281 1.265625 -7.625 C 1.679688 -8.382812 2.28125 -8.972656 3.0625 -9.390625 C 3.84375 -9.816406 4.78125 -10.03125 5.875 -10.03125 C 6.3125 -10.03125 6.757812 -9.976562 7.21875 -9.875 C 7.675781 -9.78125 8.082031 -9.632812 8.4375 -9.4375 C 8.695312 -9.289062 8.878906 -9.109375 8.984375 -8.890625 C 9.085938 -8.679688 9.125 -8.460938 9.09375 -8.234375 C 9.070312 -8.015625 8.992188 -7.816406 8.859375 -7.640625 C 8.722656 -7.460938 8.550781 -7.34375 8.34375 -7.28125 C 8.132812 -7.226562 7.910156 -7.257812 7.671875 -7.375 C 7.117188 -7.644531 6.554688 -7.78125 5.984375 -7.78125 C 5.109375 -7.78125 4.453125 -7.535156 4.015625 -7.046875 C 3.578125 -6.554688 3.359375 -5.851562 3.359375 -4.9375 C 3.359375 -4.019531 3.578125 -3.316406 4.015625 -2.828125 C 4.453125 -2.335938 5.109375 -2.09375 5.984375 -2.09375 C 6.222656 -2.09375 6.484375 -2.117188 6.765625 -2.171875 C 7.046875 -2.234375 7.320312 -2.332031 7.59375 -2.46875 C 7.875 -2.582031 8.125 -2.613281 8.34375 -2.5625 C 8.5625 -2.507812 8.738281 -2.394531 8.875 -2.21875 C 9.019531 -2.050781 9.109375 -1.859375 9.140625 -1.640625 C 9.171875 -1.421875 9.140625 -1.203125 9.046875 -0.984375 C 8.953125 -0.773438 8.78125 -0.601562 8.53125 -0.46875 C 8.195312 -0.28125 7.789062 -0.128906 7.3125 -0.015625 C 6.832031 0.0976562 6.351562 0.15625 5.875 0.15625 Z M 5.875 0.15625 "/></g></g></g><g fill="#000000" fill-opacity="1"><g transform="translate(146.92083, 222.404457)"><g><path d="M 5.65625 0.15625 C 4.65625 0.15625 3.78125 -0.0546875 3.03125 -0.484375 C 2.28125 -0.910156 1.691406 -1.503906 1.265625 -2.265625 C 0.847656 -3.035156 0.640625 -3.925781 0.640625 -4.9375 C 0.640625 -5.96875 0.847656 -6.863281 1.265625 -7.625 C 1.679688 -8.382812 2.265625 -8.972656 3.015625 -9.390625 C 3.773438 -9.816406 4.65625 -10.03125 5.65625 -10.03125 C 6.65625 -10.03125 7.53125 -9.816406 8.28125 -9.390625 C 9.03125 -8.972656 9.613281 -8.382812 10.03125 -7.625 C 10.457031 -6.863281 10.671875 -5.96875 10.671875 -4.9375 C 10.671875 -3.925781 10.457031 -3.035156 10.03125 -2.265625 C 9.613281 -1.503906 9.03125 -0.910156 8.28125 -0.484375 C 7.53125 -0.0546875 6.65625 0.15625 5.65625 0.15625 Z M 5.65625 -2 C 6.382812 -2 6.957031 -2.257812 7.375 -2.78125 C 7.789062 -3.300781 8 -4.019531 8 -4.9375 C 8 -5.863281 7.789062 -6.582031 7.375 -7.09375 C 6.96875 -7.613281 6.394531 -7.875 5.65625 -7.875 C 4.914062 -7.875 4.335938 -7.613281 3.921875 -7.09375 C 3.515625 -6.582031 3.3125 -5.863281 3.3125 -4.9375 C 3.3125 -4.019531 3.515625 -3.300781 3.921875 -2.78125 C 4.335938 -2.257812 4.914062 -2 5.65625 -2 Z M 5.65625 -2 "/></g></g></g><g fill="#000000" fill-opacity="1"><g transform="translate(164.876546, 222.404457)"><g><path d="M 2.09375 0.125 C 1.71875 0.125 1.425781 0.0234375 1.21875 -0.171875 C 1.019531 -0.378906 0.921875 -0.671875 0.921875 -1.046875 L 0.921875 -8.8125 C 0.921875 -9.195312 1.023438 -9.488281 1.234375 -9.6875 C 1.453125 -9.894531 1.757812 -10 2.15625 -10 C 2.46875 -10 2.722656 -9.9375 2.921875 -9.8125 C 3.117188 -9.6875 3.296875 -9.476562 3.453125 -9.1875 L 6.21875 -4.21875 L 8.96875 -9.1875 C 9.132812 -9.476562 9.3125 -9.6875 9.5 -9.8125 C 9.695312 -9.9375 9.960938 -10 10.296875 -10 C 10.660156 -10 10.941406 -9.894531 11.140625 -9.6875 C 11.347656 -9.488281 11.453125 -9.195312 11.453125 -8.8125 L 11.453125 -1.046875 C 11.453125 -0.671875 11.351562 -0.378906 11.15625 -0.171875 C 10.957031 0.0234375 10.671875 0.125 10.296875 0.125 C 9.921875 0.125 9.628906 0.0234375 9.421875 -0.171875 C 9.222656 -0.378906 9.125 -0.671875 9.125 -1.046875 L 9.125 -5.359375 L 7.171875 -1.953125 C 7.035156 -1.742188 6.894531 -1.585938 6.75 -1.484375 C 6.601562 -1.378906 6.410156 -1.328125 6.171875 -1.328125 C 5.941406 -1.328125 5.75 -1.378906 5.59375 -1.484375 C 5.445312 -1.585938 5.3125 -1.742188 5.1875 -1.953125 L 3.25 -5.3125 L 3.25 -1.046875 C 3.25 -0.671875 3.148438 -0.378906 2.953125 -0.171875 C 2.753906 0.0234375 2.46875 0.125 2.09375 0.125 Z M 2.09375 0.125 "/></g></g></g><g fill="#000000" fill-opacity="1"><g transform="translate(183.909649, 222.404457)"><g><path d="M 2.09375 0.125 C 1.71875 0.125 1.425781 0.0234375 1.21875 -0.171875 C 1.019531 -0.378906 0.921875 -0.671875 0.921875 -1.046875 L 0.921875 -8.8125 C 0.921875 -9.195312 1.023438 -9.488281 1.234375 -9.6875 C 1.453125 -9.894531 1.757812 -10 2.15625 -10 C 2.46875 -10 2.722656 -9.9375 2.921875 -9.8125 C 3.117188 -9.6875 3.296875 -9.476562 3.453125 -9.1875 L 6.21875 -4.21875 L 8.96875 -9.1875 C 9.132812 -9.476562 9.3125 -9.6875 9.5 -9.8125 C 9.695312 -9.9375 9.960938 -10 10.296875 -10 C 10.660156 -10 10.941406 -9.894531 11.140625 -9.6875 C 11.347656 -9.488281 11.453125 -9.195312 11.453125 -8.8125 L 11.453125 -1.046875 C 11.453125 -0.671875 11.351562 -0.378906 11.15625 -0.171875 C 10.957031 0.0234375 10.671875 0.125 10.296875 0.125 C 9.921875 0.125 9.628906 0.0234375 9.421875 -0.171875 C 9.222656 -0.378906 9.125 -0.671875 9.125 -1.046875 L 9.125 -5.359375 L 7.171875 -1.953125 C 7.035156 -1.742188 6.894531 -1.585938 6.75 -1.484375 C 6.601562 -1.378906 6.410156 -1.328125 6.171875 -1.328125 C 5.941406 -1.328125 5.75 -1.378906 5.59375 -1.484375 C 5.445312 -1.585938 5.3125 -1.742188 5.1875 -1.953125 L 3.25 -5.3125 L 3.25 -1.046875 C 3.25 -0.671875 3.148438 -0.378906 2.953125 -0.171875 C 2.753906 0.0234375 2.46875 0.125 2.09375 0.125 Z M 2.09375 0.125 "/></g></g></g><g fill="#000000" fill-opacity="1"><g transform="translate(202.942751, 222.404457)"><g><path d="M 2.234375 0 C 1.335938 0 0.890625 -0.441406 0.890625 -1.328125 L 0.890625 -8.546875 C 0.890625 -9.429688 1.335938 -9.875 2.234375 -9.875 L 6.984375 -9.875 C 7.660156 -9.875 8 -9.546875 8 -8.890625 C 8 -8.210938 7.660156 -7.875 6.984375 -7.875 L 3.359375 -7.875 L 3.359375 -6 L 6.671875 -6 C 7.347656 -6 7.6875 -5.671875 7.6875 -5.015625 C 7.6875 -4.347656 7.347656 -4.015625 6.671875 -4.015625 L 3.359375 -4.015625 L 3.359375 -1.984375 L 6.984375 -1.984375 C 7.660156 -1.984375 8 -1.65625 8 -1 C 8 -0.332031 7.660156 0 6.984375 0 Z M 2.234375 0 "/></g></g></g><g fill="#000000" fill-opacity="1"><g transform="translate(218.197965, 222.404457)"><g><path d="M 2.1875 0.125 C 1.769531 0.125 1.445312 0.015625 1.21875 -0.203125 C 1 -0.429688 0.890625 -0.753906 0.890625 -1.171875 L 0.890625 -8.5625 C 0.890625 -8.988281 1 -9.3125 1.21875 -9.53125 C 1.445312 -9.757812 1.773438 -9.875 2.203125 -9.875 L 5.640625 -9.875 C 6.765625 -9.875 7.628906 -9.597656 8.234375 -9.046875 C 8.847656 -8.503906 9.15625 -7.75 9.15625 -6.78125 C 9.15625 -6.039062 8.96875 -5.421875 8.59375 -4.921875 C 8.226562 -4.421875 7.695312 -4.070312 7 -3.875 C 7.519531 -3.738281 7.941406 -3.378906 8.265625 -2.796875 L 8.953125 -1.546875 C 9.109375 -1.265625 9.175781 -0.992188 9.15625 -0.734375 C 9.144531 -0.484375 9.046875 -0.273438 8.859375 -0.109375 C 8.671875 0.046875 8.394531 0.125 8.03125 0.125 C 7.664062 0.125 7.367188 0.0507812 7.140625 -0.09375 C 6.910156 -0.238281 6.707031 -0.472656 6.53125 -0.796875 L 5.265625 -3.140625 C 5.148438 -3.335938 5.003906 -3.476562 4.828125 -3.5625 C 4.660156 -3.644531 4.460938 -3.6875 4.234375 -3.6875 L 3.46875 -3.6875 L 3.46875 -1.171875 C 3.46875 -0.753906 3.359375 -0.429688 3.140625 -0.203125 C 2.921875 0.015625 2.601562 0.125 2.1875 0.125 Z M 3.46875 -5.5 L 5.1875 -5.5 C 6.195312 -5.5 6.703125 -5.898438 6.703125 -6.703125 C 6.703125 -7.492188 6.195312 -7.890625 5.1875 -7.890625 L 3.46875 -7.890625 Z M 3.46875 -5.5 "/></g></g></g><g fill="#000000" fill-opacity="1"><g transform="translate(234.740456, 222.404457)"><g><path d="M 5.875 0.15625 C 4.78125 0.15625 3.84375 -0.0507812 3.0625 -0.46875 C 2.28125 -0.894531 1.679688 -1.488281 1.265625 -2.25 C 0.847656 -3.019531 0.640625 -3.914062 0.640625 -4.9375 C 0.640625 -5.96875 0.847656 -6.863281 1.265625 -7.625 C 1.679688 -8.382812 2.28125 -8.972656 3.0625 -9.390625 C 3.84375 -9.816406 4.78125 -10.03125 5.875 -10.03125 C 6.3125 -10.03125 6.757812 -9.976562 7.21875 -9.875 C 7.675781 -9.78125 8.082031 -9.632812 8.4375 -9.4375 C 8.695312 -9.289062 8.878906 -9.109375 8.984375 -8.890625 C 9.085938 -8.679688 9.125 -8.460938 9.09375 -8.234375 C 9.070312 -8.015625 8.992188 -7.816406 8.859375 -7.640625 C 8.722656 -7.460938 8.550781 -7.34375 8.34375 -7.28125 C 8.132812 -7.226562 7.910156 -7.257812 7.671875 -7.375 C 7.117188 -7.644531 6.554688 -7.78125 5.984375 -7.78125 C 5.109375 -7.78125 4.453125 -7.535156 4.015625 -7.046875 C 3.578125 -6.554688 3.359375 -5.851562 3.359375 -4.9375 C 3.359375 -4.019531 3.578125 -3.316406 4.015625 -2.828125 C 4.453125 -2.335938 5.109375 -2.09375 5.984375 -2.09375 C 6.222656 -2.09375 6.484375 -2.117188 6.765625 -2.171875 C 7.046875 -2.234375 7.320312 -2.332031 7.59375 -2.46875 C 7.875 -2.582031 8.125 -2.613281 8.34375 -2.5625 C 8.5625 -2.507812 8.738281 -2.394531 8.875 -2.21875 C 9.019531 -2.050781 9.109375 -1.859375 9.140625 -1.640625 C 9.171875 -1.421875 9.140625 -1.203125 9.046875 -0.984375 C 8.953125 -0.773438 8.78125 -0.601562 8.53125 -0.46875 C 8.195312 -0.28125 7.789062 -0.128906 7.3125 -0.015625 C 6.832031 0.0976562 6.351562 0.15625 5.875 0.15625 Z M 5.875 0.15625 "/></g></g></g><g fill="#000000" fill-opacity="1"><g transform="translate(251.031097, 222.404457)"><g><path d="M 2.234375 0 C 1.335938 0 0.890625 -0.441406 0.890625 -1.328125 L 0.890625 -8.546875 C 0.890625 -9.429688 1.335938 -9.875 2.234375 -9.875 L 6.984375 -9.875 C 7.660156 -9.875 8 -9.546875 8 -8.890625 C 8 -8.210938 7.660156 -7.875 6.984375 -7.875 L 3.359375 -7.875 L 3.359375 -6 L 6.671875 -6 C 7.347656 -6 7.6875 -5.671875 7.6875 -5.015625 C 7.6875 -4.347656 7.347656 -4.015625 6.671875 -4.015625 L 3.359375 -4.015625 L 3.359375 -1.984375 L 6.984375 -1.984375 C 7.660156 -1.984375 8 -1.65625 8 -1 C 8 -0.332031 7.660156 0 6.984375 0 Z M 2.234375 0 "/></g></g></g></svg>