<svg width="800" height="800" viewBox="0 0 800 800" fill="none" xmlns="http://www.w3.org/2000/svg">
<g clip-path="url(#clip0_46_73)">
<path d="M401.039 107.856C412.783 89.0119 440.217 89.0119 451.961 107.856L782.417 638.133C794.87 658.116 780.502 684 756.956 684H96.0438C72.4984 684 58.1302 658.116 70.583 638.133L401.039 107.856Z" fill="#F59E0C" fill-opacity="0.35" stroke="black"/>
<path d="M376.039 107.856C387.783 89.0119 415.217 89.0119 426.961 107.856L757.417 638.133C769.87 658.116 755.502 684 731.956 684H71.0438C47.4984 684 33.1302 658.116 45.583 638.133L376.039 107.856Z" fill="#F59E0C" fill-opacity="0.35" stroke="black"/>
<path d="M348.039 107.856C359.783 89.0119 387.217 89.0119 398.961 107.856L729.417 638.133C741.87 658.116 727.502 684 703.956 684H43.0438C19.4984 684 5.13015 658.116 17.583 638.133L348.039 107.856Z" fill="#F59F0B" stroke="black"/>
</g>
<defs>
<clipPath id="clip0_46_73">
<rect width="800" height="800" fill="white"/>
</clipPath>
</defs>
</svg>
