<svg xmlns="http://www.w3.org/2000/svg" xmlns:xlink="http://www.w3.org/1999/xlink" width="500" zoomAndPan="magnify" viewBox="0 0 375 374.999991" height="500" preserveAspectRatio="xMidYMid meet" version="1.0"><defs><clipPath id="9096086838"><path d="M 23.847656 0 L 302 0 L 302 351 L 23.847656 351 Z M 23.847656 0 " clip-rule="nonzero"/></clipPath><clipPath id="cb6454d51d"><path d="M 64 24 L 341.847656 24 L 341.847656 375 L 64 375 Z M 64 24 " clip-rule="nonzero"/></clipPath></defs><path fill="#a6a6a6" d="M 300.605469 9.039062 L 300.605469 183.691406 C 300.605469 189.890625 296.867188 197.0625 292.234375 199.675781 L 33.238281 349.078125 C 28.601562 351.769531 24.863281 348.929688 24.863281 342.730469 L 24.863281 168.078125 C 24.863281 161.878906 28.601562 154.707031 33.238281 152.089844 L 292.234375 2.6875 C 296.792969 0 300.605469 2.839844 300.605469 9.039062 Z M 300.605469 9.039062 " fill-opacity="1" fill-rule="nonzero"/><g clip-path="url(#9096086838)"><path fill="#000000" d="M 298.066406 1.492188 C 296.269531 0.449219 294.027344 0.597656 291.710938 1.941406 L 32.714844 151.34375 C 27.929688 154.109375 23.96875 161.652344 23.96875 168.078125 L 23.96875 342.730469 C 23.96875 346.316406 25.164062 349.003906 27.257812 350.273438 C 28.003906 350.722656 28.902344 350.945312 29.800781 350.945312 C 30.996094 350.945312 32.265625 350.574219 33.539062 349.824219 L 292.53125 200.421875 C 297.390625 197.585938 301.355469 190.113281 301.355469 183.691406 L 301.355469 9.039062 C 301.429688 5.453125 300.234375 2.6875 298.066406 1.492188 Z M 291.785156 198.929688 L 32.789062 348.332031 C 31.070312 349.304688 29.425781 349.527344 28.15625 348.78125 C 26.585938 347.882812 25.6875 345.640625 25.6875 342.730469 L 25.6875 174.425781 L 299.710938 16.359375 L 299.710938 183.691406 C 299.710938 189.515625 296.121094 196.390625 291.785156 198.929688 Z M 291.785156 198.929688 " fill-opacity="1" fill-rule="nonzero"/></g><path fill="#a6a6a6" d="M 31.894531 162.25 C 31.894531 163.296875 32.191406 164.042969 32.789062 164.417969 C 33.386719 164.714844 34.210938 164.640625 35.109375 164.117188 C 37.277344 162.847656 39.144531 159.636719 39.144531 157.171875 C 39.144531 156.125 38.847656 155.378906 38.25 155.003906 C 38.023438 154.855469 37.800781 154.855469 37.5 154.855469 C 37.050781 154.855469 36.453125 155.003906 35.929688 155.378906 C 33.761719 156.5 31.894531 159.710938 31.894531 162.25 Z M 31.894531 162.25 " fill-opacity="1" fill-rule="nonzero"/><path fill="#737373" d="M 44.078125 155.15625 C 44.078125 156.199219 44.378906 156.945312 44.976562 157.320312 C 45.574219 157.621094 46.398438 157.542969 47.296875 157.023438 C 49.464844 155.753906 51.332031 152.539062 51.332031 150.074219 C 51.332031 149.027344 51.035156 148.28125 50.433594 147.910156 C 50.210938 147.757812 49.988281 147.757812 49.6875 147.757812 C 49.238281 147.757812 48.640625 147.910156 48.117188 148.28125 C 45.949219 149.476562 44.078125 152.6875 44.078125 155.15625 Z M 44.078125 155.15625 " fill-opacity="1" fill-rule="nonzero"/><path fill="#fefefe" d="M 56.566406 147.984375 C 56.566406 149.027344 56.863281 149.777344 57.464844 150.148438 C 58.0625 150.449219 58.882812 150.375 59.78125 149.851562 C 61.949219 148.582031 63.820312 145.367188 63.820312 142.902344 C 63.820312 141.859375 63.519531 141.109375 62.921875 140.738281 C 62.695312 140.585938 62.472656 140.585938 62.171875 140.585938 C 61.726562 140.585938 61.125 140.738281 60.605469 141.109375 C 58.433594 142.230469 56.566406 145.441406 56.566406 147.984375 Z M 56.566406 147.984375 " fill-opacity="1" fill-rule="nonzero"/><path fill="#737373" d="M 320.71875 20.394531 L 320.71875 195.042969 C 320.71875 201.246094 316.980469 208.417969 312.34375 211.03125 L 53.351562 360.433594 C 48.714844 363.121094 44.976562 360.285156 44.976562 354.082031 L 44.976562 179.433594 C 44.976562 173.230469 48.714844 166.0625 53.351562 163.445312 L 312.34375 14.042969 C 316.980469 11.355469 320.71875 14.191406 320.71875 20.394531 Z M 320.71875 20.394531 " fill-opacity="1" fill-rule="nonzero"/><path fill="#000000" d="M 318.25 12.847656 C 316.457031 11.804688 314.214844 11.953125 311.898438 13.296875 L 52.902344 162.699219 C 48.042969 165.539062 44.078125 173.007812 44.078125 179.433594 L 44.078125 354.082031 C 44.078125 357.667969 45.277344 360.359375 47.371094 361.628906 C 48.117188 362.078125 49.015625 362.300781 49.910156 362.300781 C 51.109375 362.300781 52.378906 361.925781 53.648438 361.179688 L 312.644531 211.777344 C 317.503906 208.9375 321.464844 201.46875 321.464844 195.042969 L 321.464844 20.394531 C 321.617188 16.808594 320.34375 14.117188 318.25 12.847656 Z M 319.898438 27.714844 L 319.898438 29.65625 L 302.773438 46.761719 L 282.363281 67.15625 L 241.539062 107.941406 L 221.128906 128.335938 L 180.230469 169.199219 L 159.820312 189.589844 L 118.921875 230.453125 L 98.511719 250.847656 L 57.6875 291.632812 L 45.800781 303.511719 L 45.800781 298.804688 L 62.921875 281.699219 L 88.417969 256.226562 L 124.15625 220.519531 L 149.652344 195.042969 L 185.464844 159.1875 L 210.960938 133.714844 L 220.382812 124.304688 L 221.203125 123.480469 L 246.699219 98.007812 L 272.269531 72.535156 L 308.007812 36.828125 L 313.316406 31.449219 Z M 297.617188 108.019531 L 282.289062 123.332031 L 236.382812 169.199219 L 221.054688 184.511719 L 175.148438 230.378906 L 159.820312 245.691406 L 113.914062 291.558594 L 98.585938 306.871094 L 52.679688 352.738281 L 46.921875 358.492188 C 46.324219 357.519531 46.023438 356.25 45.949219 354.757812 L 57.988281 342.730469 L 88.640625 312.101562 L 119.296875 281.472656 L 149.949219 250.847656 L 180.605469 220.21875 L 211.257812 189.589844 L 220.457031 180.402344 L 221.503906 179.359375 L 241.914062 158.964844 L 272.570312 128.335938 L 303.222656 97.710938 L 320.195312 80.753906 L 320.195312 85.457031 Z M 292.53125 108.019531 L 282.289062 118.253906 L 231.222656 169.273438 L 220.980469 179.507812 L 169.914062 230.527344 L 159.820312 240.613281 L 108.753906 291.632812 L 98.511719 301.867188 L 47.445312 352.886719 L 45.800781 354.53125 C 45.800781 354.382812 45.800781 354.234375 45.800781 354.082031 L 45.800781 349.75 L 52.753906 342.804688 L 88.492188 307.097656 L 113.988281 281.625 L 149.726562 245.917969 L 175.222656 220.441406 L 210.960938 184.734375 L 219.859375 175.847656 L 221.128906 174.578125 L 236.457031 159.261719 L 272.195312 123.554688 L 297.691406 98.082031 L 319.746094 76.046875 L 319.746094 80.753906 Z M 287.449219 108.019531 L 282.363281 113.097656 L 226.214844 169.199219 L 221.128906 174.277344 L 164.980469 230.378906 L 159.894531 235.457031 L 103.746094 291.558594 L 98.660156 296.636719 L 45.949219 349.304688 L 45.949219 344.597656 L 47.816406 342.730469 L 88.640625 301.941406 L 109.054688 281.546875 L 149.875 240.761719 L 170.289062 220.367188 L 211.109375 179.582031 L 231.523438 159.1875 L 272.34375 118.402344 L 292.757812 98.007812 L 319.972656 70.816406 L 319.972656 75.523438 Z M 282.289062 108.019531 L 98.585938 291.558594 L 45.875 344.222656 L 45.875 339.515625 L 88.566406 296.863281 L 103.894531 281.546875 L 149.800781 235.683594 L 165.128906 220.367188 L 211.035156 174.503906 L 226.363281 159.1875 L 272.269531 113.320312 L 287.597656 98.007812 L 319.898438 65.738281 L 319.898438 70.441406 Z M 277.203125 108.019531 L 93.5 291.558594 L 45.800781 339.21875 L 45.800781 334.511719 L 98.660156 281.699219 L 159.894531 220.519531 L 221.128906 159.335938 L 282.363281 98.15625 L 319.746094 60.808594 L 319.746094 65.511719 Z M 272.121094 108.019531 L 210.886719 169.199219 L 149.578125 230.453125 L 88.34375 291.632812 L 45.875 334.0625 L 45.875 329.359375 L 88.566406 286.703125 L 149.800781 225.523438 L 154.886719 220.441406 L 211.035156 164.34375 L 272.269531 103.164062 L 319.898438 55.578125 L 319.898438 60.285156 Z M 282.289062 92.703125 L 266.960938 108.019531 L 221.054688 153.960938 L 205.726562 169.273438 L 159.820312 215.140625 L 144.492188 230.453125 L 98.585938 276.320312 L 83.257812 291.632812 L 45.875 328.984375 L 45.875 324.277344 L 88.566406 281.625 L 149.800781 220.441406 L 211.035156 159.261719 L 221.054688 149.253906 L 221.277344 149.027344 L 272.34375 98.007812 L 319.972656 50.421875 L 319.972656 55.128906 Z M 282.289062 87.625 L 261.878906 108.019531 L 221.054688 148.804688 L 200.644531 169.199219 L 159.820312 209.984375 L 139.410156 230.378906 L 98.511719 271.238281 L 78.097656 291.632812 L 45.800781 323.90625 L 45.800781 319.199219 L 83.40625 281.625 L 88.492188 276.542969 L 144.640625 220.441406 L 149.726562 215.363281 L 205.875 159.261719 L 210.960938 154.183594 L 220.90625 144.246094 L 221.203125 143.949219 L 267.109375 98.082031 L 272.195312 93.003906 L 319.820312 45.417969 L 319.820312 50.125 Z M 318.027344 46.835938 L 282.289062 82.542969 L 256.792969 108.019531 L 221.054688 143.726562 L 195.558594 169.199219 L 159.820312 204.90625 L 134.324219 230.378906 L 98.585938 266.085938 L 73.089844 291.558594 L 45.875 318.75 L 45.875 314.042969 L 78.324219 281.625 L 88.566406 271.390625 L 139.632812 220.367188 L 149.875 210.132812 L 200.941406 159.113281 L 211.183594 148.878906 L 220.980469 139.09375 L 221.351562 138.71875 L 262.175781 97.933594 L 272.417969 87.699219 L 320.046875 40.113281 L 320.046875 44.820312 Z M 312.941406 46.835938 L 282.289062 77.464844 L 251.632812 108.09375 L 220.980469 138.71875 L 190.324219 169.347656 L 159.671875 199.976562 L 129.015625 230.601562 L 98.359375 261.230469 L 67.707031 291.859375 L 45.648438 313.894531 L 45.648438 309.1875 L 73.015625 281.847656 L 88.34375 266.535156 L 134.25 220.667969 L 149.578125 205.355469 L 195.484375 159.488281 L 210.8125 144.171875 L 220.53125 134.460938 L 221.054688 133.9375 L 256.792969 98.230469 L 272.121094 82.917969 L 318.027344 37.050781 L 319.671875 35.410156 L 319.671875 40.113281 Z M 307.859375 46.835938 L 282.363281 72.3125 L 246.625 108.019531 L 221.128906 133.492188 L 185.390625 169.199219 L 159.894531 194.671875 L 124.15625 230.378906 L 98.660156 255.851562 L 62.921875 291.558594 L 45.800781 308.589844 L 45.800781 303.882812 L 68.082031 281.625 L 88.492188 261.230469 L 129.316406 220.441406 L 149.726562 200.050781 L 190.550781 159.261719 L 210.960938 138.871094 L 220.53125 129.308594 L 221.203125 128.636719 L 251.859375 98.007812 L 272.269531 77.613281 L 313.09375 36.828125 L 319.820312 30.105469 L 319.820312 34.8125 Z M 297.617188 46.835938 L 282.289062 62.152344 L 236.382812 108.019531 L 221.054688 123.332031 L 175.148438 169.199219 L 159.820312 184.511719 L 113.914062 230.378906 L 98.585938 245.691406 L 52.679688 291.558594 L 45.949219 298.28125 L 45.949219 293.648438 L 57.988281 281.625 L 88.640625 250.996094 L 119.296875 220.367188 L 149.949219 189.742188 L 180.605469 159.113281 L 211.257812 128.484375 L 220.457031 119.296875 L 221.503906 118.253906 L 241.914062 97.859375 L 272.570312 67.230469 L 301.578125 38.246094 L 312.792969 31.746094 Z M 46.773438 185.257812 L 45.800781 186.230469 L 45.800781 185.855469 Z M 47.59375 184.734375 L 58.808594 178.238281 L 45.800781 191.308594 L 45.800781 186.605469 Z M 59.707031 177.789062 L 70.921875 171.289062 L 45.800781 196.390625 L 45.800781 191.683594 Z M 71.820312 170.839844 L 83.035156 164.34375 L 78.175781 169.199219 L 45.875 201.46875 L 45.875 196.761719 Z M 83.855469 163.820312 L 95.070312 157.320312 L 83.183594 169.199219 L 45.800781 206.546875 L 45.800781 201.84375 Z M 88.492188 164.34375 L 95.894531 156.945312 L 107.109375 150.449219 L 88.265625 169.273438 L 45.800781 211.703125 L 45.800781 206.996094 Z M 98.734375 159.1875 L 108.007812 149.925781 L 119.222656 143.425781 L 93.425781 169.199219 L 45.800781 216.78125 L 45.800781 212.078125 Z M 88.492188 174.503906 L 103.820312 159.1875 L 120.117188 142.902344 L 131.332031 136.40625 L 98.585938 169.125 L 45.875 221.789062 L 45.875 217.082031 Z M 47.667969 220.441406 L 88.492188 179.65625 L 108.902344 159.261719 L 132.15625 136.03125 L 143.371094 129.53125 L 103.59375 169.273438 L 98.511719 174.351562 L 45.800781 227.015625 L 45.800781 222.3125 Z M 52.753906 220.441406 L 88.492188 184.734375 L 113.988281 159.261719 L 144.195312 129.082031 L 155.410156 122.585938 L 108.679688 169.273438 L 98.4375 179.507812 L 47.371094 230.527344 L 45.726562 232.171875 L 45.726562 227.464844 Z M 57.910156 220.441406 L 88.566406 189.816406 L 119.222656 159.1875 L 149.875 128.5625 L 156.457031 121.988281 L 167.671875 115.488281 L 159.820312 123.332031 L 113.914062 169.199219 L 98.585938 184.511719 L 52.679688 230.378906 L 45.949219 237.101562 L 45.949219 232.394531 Z M 62.996094 220.441406 L 88.492188 194.96875 L 124.230469 159.261719 L 149.726562 133.789062 L 168.34375 115.1875 L 179.558594 108.691406 L 159.746094 128.484375 L 118.921875 169.199219 L 98.511719 189.589844 L 57.6875 230.378906 L 45.800781 242.257812 L 45.800781 237.550781 Z M 68.082031 220.441406 L 88.492188 200.050781 L 129.316406 159.261719 L 149.726562 138.871094 L 180.457031 108.167969 L 191.671875 101.667969 L 185.316406 108.019531 L 159.820312 133.492188 L 124.082031 169.199219 L 98.585938 194.671875 L 62.847656 230.378906 L 45.875 247.335938 L 45.875 242.628906 Z M 73.164062 220.441406 L 88.492188 205.128906 L 134.398438 159.261719 L 149.726562 143.949219 L 192.492188 101.21875 L 203.707031 94.722656 L 190.324219 108.09375 L 159.671875 138.71875 L 98.359375 199.976562 L 67.707031 230.601562 L 45.648438 252.640625 L 45.648438 247.933594 Z M 78.324219 220.441406 L 88.566406 210.210938 L 139.632812 159.1875 L 149.875 148.953125 L 200.941406 97.933594 L 204.753906 94.125 L 215.96875 87.625 L 195.632812 107.941406 L 159.894531 143.648438 L 134.398438 169.125 L 98.660156 204.832031 L 73.164062 230.304688 L 45.949219 257.496094 L 45.949219 252.789062 Z M 83.40625 220.441406 L 88.492188 215.363281 L 144.640625 159.261719 L 149.726562 154.183594 L 205.875 98.082031 L 210.960938 93.003906 L 216.644531 87.324219 L 227.859375 80.828125 L 220.980469 87.699219 L 200.566406 108.09375 L 159.746094 148.878906 L 139.332031 169.273438 L 98.511719 210.058594 L 78.097656 230.453125 L 45.800781 262.722656 L 45.800781 258.019531 Z M 88.492188 220.441406 L 210.960938 98.082031 L 220.980469 88.074219 L 221.203125 87.847656 L 228.753906 80.304688 L 239.96875 73.804688 L 221.054688 92.703125 L 205.726562 108.019531 L 159.820312 153.960938 L 144.492188 169.273438 L 98.585938 215.140625 L 83.257812 230.453125 L 45.875 267.804688 L 45.875 263.023438 Z M 88.492188 225.523438 L 93.574219 220.441406 L 149.726562 164.34375 L 210.960938 103.164062 L 240.867188 73.28125 L 252.082031 66.78125 L 210.8125 108.019531 L 88.34375 230.378906 L 45.875 272.808594 L 45.875 268.101562 Z M 98.734375 220.441406 L 221.203125 98.082031 L 252.90625 66.410156 L 264.121094 59.910156 L 215.894531 108.09375 L 93.425781 230.453125 L 45.800781 277.964844 L 45.800781 273.257812 Z M 88.492188 235.683594 L 103.820312 220.367188 L 149.726562 174.503906 L 165.054688 159.1875 L 210.960938 113.320312 L 226.289062 98.007812 L 265.015625 59.3125 L 276.234375 52.8125 L 221.054688 107.941406 L 159.820312 169.125 L 98.585938 230.304688 L 45.875 282.96875 L 45.875 278.261719 Z M 47.667969 281.625 L 88.492188 240.835938 L 108.902344 220.441406 L 149.726562 179.65625 L 170.136719 159.261719 L 210.960938 118.476562 L 231.371094 98.082031 L 272.195312 57.296875 L 277.054688 52.441406 L 288.269531 45.941406 L 287.371094 46.835938 L 282.289062 51.917969 L 226.136719 108.019531 L 221.054688 113.097656 L 164.902344 169.199219 L 159.820312 174.277344 L 103.667969 230.378906 L 98.585938 235.457031 L 45.875 288.121094 L 45.875 283.417969 Z M 52.753906 281.625 L 88.492188 245.917969 L 113.988281 220.441406 L 149.726562 184.734375 L 175.222656 159.261719 L 210.960938 123.554688 L 219.859375 114.667969 L 221.128906 113.394531 L 236.457031 98.082031 L 272.195312 62.375 L 289.09375 45.492188 L 300.308594 38.992188 L 292.382812 46.914062 L 282.140625 57.144531 L 231.074219 108.167969 L 220.828125 118.402344 L 169.765625 169.421875 L 159.519531 179.65625 L 108.453125 230.675781 L 98.511719 240.613281 L 47.445312 291.632812 L 45.800781 293.277344 L 45.800781 288.570312 Z M 46.996094 358.789062 L 62.996094 342.804688 L 88.492188 317.332031 L 124.230469 281.625 L 149.726562 256.152344 L 185.464844 220.441406 L 210.960938 194.96875 L 220.382812 185.558594 L 221.203125 184.734375 L 246.773438 159.1875 L 272.269531 133.714844 L 308.007812 98.007812 L 319.898438 86.128906 L 319.898438 90.835938 L 302.773438 107.941406 L 282.363281 128.335938 L 241.539062 169.125 L 221.128906 189.515625 L 180.230469 230.453125 L 159.820312 250.847656 L 118.921875 291.632812 L 98.511719 312.027344 L 57.6875 352.8125 L 49.988281 360.507812 C 49.386719 360.507812 48.789062 360.359375 48.339844 360.058594 C 47.816406 359.835938 47.371094 359.386719 46.996094 358.789062 Z M 52.976562 359.6875 C 52.082031 360.210938 51.183594 360.507812 50.359375 360.582031 L 68.082031 342.804688 L 88.492188 322.410156 L 129.316406 281.625 L 149.726562 261.230469 L 190.550781 220.441406 L 210.960938 200.050781 L 220.53125 190.488281 L 221.203125 189.816406 L 251.859375 159.1875 L 272.269531 138.792969 L 313.09375 98.007812 L 319.820312 91.285156 L 319.820312 95.992188 L 307.785156 108.019531 L 282.289062 133.492188 L 246.550781 169.199219 L 221.054688 194.671875 L 185.316406 230.378906 L 159.820312 255.851562 L 124.082031 291.558594 L 98.585938 317.03125 L 62.847656 352.738281 L 60.15625 355.429688 Z M 319.523438 198.332031 L 301.652344 216.183594 L 290.4375 222.683594 L 292.679688 220.441406 L 319.898438 193.253906 L 319.898438 194.96875 C 319.898438 196.089844 319.746094 197.210938 319.523438 198.332031 Z M 311.898438 210.285156 L 302.476562 215.738281 L 319.375 198.855469 C 318.328125 203.636719 315.410156 208.265625 311.898438 210.285156 Z M 289.617188 223.132812 L 278.402344 229.632812 L 287.597656 220.441406 L 319.898438 188.171875 L 319.898438 192.878906 Z M 277.503906 230.15625 L 266.289062 236.652344 L 282.511719 220.441406 L 319.898438 183.09375 L 319.898438 187.796875 Z M 272.121094 230.453125 L 265.464844 237.101562 L 254.25 243.601562 L 277.429688 220.441406 L 319.898438 178.011719 L 319.898438 182.71875 Z M 282.289062 215.140625 L 266.960938 230.453125 L 253.355469 244.046875 L 242.136719 250.546875 L 272.269531 220.441406 L 319.898438 172.859375 L 319.898438 177.566406 Z M 282.289062 210.058594 L 261.878906 230.453125 L 241.242188 251.070312 L 230.027344 257.570312 L 267.1875 220.441406 L 272.269531 215.363281 L 319.898438 167.777344 L 319.898438 172.484375 Z M 318.027344 169.199219 L 282.289062 204.90625 L 256.792969 230.378906 L 229.203125 257.941406 L 217.988281 264.441406 L 220.828125 261.605469 L 221.203125 261.230469 L 262.027344 220.441406 L 272.269531 210.210938 L 319.898438 162.625 L 319.898438 167.332031 Z M 312.941406 169.199219 L 282.289062 199.824219 L 251.632812 230.453125 L 220.980469 261.082031 L 217.015625 265.039062 L 205.800781 271.539062 L 210.960938 266.382812 L 220.679688 256.671875 L 221.203125 256.148438 L 256.941406 220.441406 L 272.269531 205.128906 L 318.175781 159.261719 L 319.820312 157.621094 L 319.820312 162.324219 Z M 307.859375 169.199219 L 282.363281 194.671875 L 246.625 230.378906 L 221.128906 255.851562 L 205.128906 271.835938 L 193.914062 278.335938 L 211.109375 261.15625 L 220.679688 251.59375 L 221.351562 250.921875 L 252.007812 220.292969 L 272.417969 199.902344 L 313.242188 159.113281 L 319.972656 152.390625 L 319.972656 157.097656 Z M 302.699219 169.199219 L 282.289062 189.589844 L 241.464844 230.378906 L 221.054688 250.773438 L 192.941406 278.933594 L 181.726562 285.433594 L 185.464844 281.699219 L 210.960938 256.226562 L 220.382812 246.8125 L 221.203125 245.992188 L 246.773438 220.441406 L 272.269531 194.96875 L 308.007812 159.261719 L 319.898438 147.386719 L 319.898438 152.089844 Z M 297.617188 169.199219 L 282.289062 184.511719 L 236.382812 230.378906 L 221.054688 245.691406 L 180.902344 285.808594 L 169.6875 292.304688 L 180.457031 281.546875 L 211.109375 250.921875 L 220.304688 241.734375 L 221.351562 240.6875 L 241.765625 220.292969 L 272.417969 189.667969 L 303.074219 159.039062 L 320.046875 142.082031 L 320.046875 146.789062 Z M 292.53125 169.199219 L 282.289062 179.433594 L 231.222656 230.453125 L 221.054688 240.613281 L 169.988281 291.632812 L 168.792969 292.828125 L 157.578125 299.328125 L 175.296875 281.625 L 211.035156 245.917969 L 219.933594 237.027344 L 221.203125 235.757812 L 236.53125 220.441406 L 272.269531 184.734375 L 297.765625 159.261719 L 319.820312 137.226562 L 319.820312 141.933594 Z M 287.449219 169.199219 L 282.363281 174.277344 L 226.214844 230.378906 L 221.128906 235.457031 L 164.980469 291.558594 L 159.894531 296.636719 L 156.828125 299.699219 L 145.613281 306.199219 L 149.875 301.941406 L 170.289062 281.546875 L 211.109375 240.761719 L 231.523438 220.367188 L 272.34375 179.582031 L 292.757812 159.1875 L 319.972656 131.996094 L 319.972656 136.703125 Z M 282.289062 169.199219 L 159.820312 291.558594 L 144.640625 306.722656 L 133.425781 313.222656 L 149.800781 296.863281 L 165.128906 281.546875 L 211.035156 235.683594 L 226.363281 220.367188 L 272.269531 174.503906 L 287.597656 159.1875 L 319.898438 126.917969 L 319.898438 131.625 Z M 277.203125 169.199219 L 154.734375 291.558594 L 132.605469 313.671875 L 121.390625 320.167969 L 160.042969 281.546875 L 282.511719 159.1875 L 319.898438 121.835938 L 319.898438 126.542969 Z M 272.121094 169.199219 L 210.886719 230.378906 L 149.578125 291.632812 L 120.492188 320.691406 L 109.277344 327.191406 L 149.800781 286.703125 L 216.121094 220.441406 L 221.054688 215.511719 L 221.203125 215.363281 L 272.269531 164.34375 L 319.898438 116.757812 L 319.898438 121.464844 Z M 282.289062 153.960938 L 266.960938 169.199219 L 221.054688 215.066406 L 205.726562 230.378906 L 159.820312 276.246094 L 144.492188 291.558594 L 108.453125 327.566406 L 97.238281 334.0625 L 149.800781 281.546875 L 211.035156 220.367188 L 221.054688 210.359375 L 221.277344 210.132812 L 272.34375 159.113281 L 319.972656 111.527344 L 319.972656 116.234375 Z M 282.289062 148.804688 L 261.878906 169.199219 L 221.054688 209.984375 L 200.644531 230.378906 L 159.820312 271.238281 L 139.410156 291.632812 L 98.585938 332.421875 L 96.417969 334.585938 L 85.203125 341.085938 L 88.566406 337.722656 L 144.71875 281.625 L 149.800781 276.542969 L 205.953125 220.441406 L 211.035156 215.363281 L 220.980469 205.429688 L 221.277344 205.128906 L 267.1875 159.261719 L 272.269531 154.183594 L 319.898438 106.597656 L 319.898438 111.304688 Z M 318.027344 108.019531 L 282.289062 143.726562 L 256.792969 169.199219 L 221.054688 204.90625 L 195.558594 230.378906 L 159.820312 266.085938 L 134.324219 291.558594 L 98.585938 327.265625 L 84.304688 341.535156 L 73.089844 348.03125 L 78.324219 342.804688 L 88.566406 332.570312 L 139.632812 281.546875 L 149.875 271.316406 L 200.941406 220.292969 L 211.183594 210.058594 L 220.980469 200.273438 L 221.351562 199.898438 L 262.175781 159.113281 L 272.417969 148.878906 L 320.046875 101.292969 L 320.046875 106 Z M 312.941406 108.019531 L 282.289062 138.644531 L 251.632812 169.273438 L 220.980469 199.898438 L 190.324219 230.527344 L 159.671875 261.15625 L 129.015625 291.78125 L 98.359375 322.410156 L 71.96875 348.707031 L 60.753906 355.203125 L 73.015625 342.953125 L 88.34375 327.640625 L 134.25 281.773438 L 149.578125 266.460938 L 195.484375 220.59375 L 210.8125 205.277344 L 220.53125 195.566406 L 221.054688 195.042969 L 256.792969 159.335938 L 272.121094 144.023438 L 318.027344 98.15625 L 319.671875 96.515625 L 319.671875 101.21875 Z M 312.941406 108.019531 " fill-opacity="1" fill-rule="nonzero"/><path fill="#a6a6a6" d="M 52.082031 173.605469 C 52.082031 174.652344 52.378906 175.398438 52.976562 175.773438 C 53.574219 176.070312 54.398438 175.996094 55.296875 175.472656 C 57.464844 174.203125 59.332031 170.992188 59.332031 168.527344 C 59.332031 167.480469 59.035156 166.734375 58.433594 166.359375 C 58.210938 166.210938 57.988281 166.210938 57.6875 166.210938 C 57.238281 166.210938 56.640625 166.359375 56.117188 166.734375 C 53.875 167.855469 52.082031 171.066406 52.082031 173.605469 Z M 52.082031 173.605469 " fill-opacity="1" fill-rule="nonzero"/><path fill="#737373" d="M 64.265625 166.582031 C 64.265625 167.628906 64.566406 168.375 65.164062 168.75 C 65.761719 169.046875 66.585938 168.972656 67.480469 168.453125 C 69.652344 167.179688 71.519531 163.96875 71.519531 161.503906 C 71.519531 160.457031 71.21875 159.710938 70.621094 159.335938 C 70.398438 159.1875 70.171875 159.1875 69.875 159.1875 C 69.425781 159.1875 68.828125 159.335938 68.304688 159.710938 C 66.136719 160.832031 64.265625 164.042969 64.265625 166.582031 Z M 64.265625 166.582031 " fill-opacity="1" fill-rule="nonzero"/><path fill="#fefefe" d="M 76.753906 159.335938 C 76.753906 160.382812 77.050781 161.128906 77.652344 161.503906 C 78.25 161.804688 79.070312 161.726562 79.96875 161.207031 C 82.136719 159.933594 84.003906 156.722656 84.003906 154.257812 C 84.003906 153.210938 83.707031 152.464844 83.109375 152.089844 C 82.882812 151.941406 82.660156 151.941406 82.359375 151.941406 C 81.914062 151.941406 81.3125 152.089844 80.789062 152.464844 C 78.621094 153.660156 76.753906 156.796875 76.753906 159.335938 Z M 76.753906 159.335938 " fill-opacity="1" fill-rule="nonzero"/><path fill="#fefefe" d="M 332.53125 25.921875 L 73.539062 175.324219 C 68.902344 178.011719 65.164062 185.183594 65.164062 191.308594 L 65.164062 365.960938 C 65.164062 372.160156 68.902344 375 73.539062 372.3125 L 332.53125 222.910156 C 337.167969 220.21875 340.90625 213.046875 340.90625 206.921875 L 340.90625 32.269531 C 340.90625 26.070312 337.167969 23.230469 332.53125 25.921875 Z M 332.53125 25.921875 " fill-opacity="1" fill-rule="nonzero"/><g clip-path="url(#cb6454d51d)"><path fill="#000000" d="M 338.4375 24.726562 C 336.644531 23.679688 334.402344 23.828125 332.082031 25.175781 L 73.089844 174.578125 C 68.230469 177.414062 64.265625 184.886719 64.265625 191.308594 L 64.265625 365.960938 C 64.265625 369.546875 65.464844 372.234375 67.558594 373.507812 C 68.304688 373.953125 69.203125 374.179688 70.097656 374.179688 C 71.296875 374.179688 72.566406 373.804688 73.835938 373.058594 L 332.832031 223.65625 C 337.691406 220.816406 341.652344 213.347656 341.652344 206.921875 L 341.652344 32.269531 C 341.730469 28.683594 340.53125 25.996094 338.4375 24.726562 Z M 332.082031 222.160156 L 73.089844 371.5625 C 71.371094 372.535156 69.726562 372.757812 68.453125 372.011719 C 66.882812 371.117188 65.988281 368.875 65.988281 365.960938 L 65.988281 197.660156 L 340.007812 39.589844 L 340.007812 206.921875 C 340.007812 212.75 336.496094 219.621094 332.082031 222.160156 Z M 332.082031 222.160156 " fill-opacity="1" fill-rule="nonzero"/></g><path fill="#a6a6a6" d="M 72.191406 185.484375 C 72.191406 186.527344 72.492188 187.277344 73.089844 187.648438 C 73.6875 187.949219 74.511719 187.875 75.40625 187.351562 C 77.574219 186.082031 79.445312 182.867188 79.445312 180.402344 C 79.445312 179.359375 79.144531 178.609375 78.546875 178.238281 C 78.324219 178.085938 78.097656 178.085938 77.800781 178.085938 C 77.351562 178.085938 76.753906 178.238281 76.230469 178.609375 C 74.0625 179.730469 72.191406 182.941406 72.191406 185.484375 Z M 72.191406 185.484375 " fill-opacity="1" fill-rule="nonzero"/><path fill="#737373" d="M 84.378906 178.460938 C 84.378906 179.507812 84.679688 180.253906 85.277344 180.628906 C 85.875 180.925781 86.699219 180.851562 87.59375 180.328125 C 89.761719 179.058594 91.632812 175.847656 91.632812 173.382812 C 91.632812 172.335938 91.332031 171.589844 90.734375 171.214844 C 90.511719 171.066406 90.285156 171.066406 89.988281 171.066406 C 89.539062 171.066406 88.941406 171.214844 88.417969 171.589844 C 86.25 172.710938 84.378906 175.921875 84.378906 178.460938 Z M 84.378906 178.460938 " fill-opacity="1" fill-rule="nonzero"/><path fill="#fefefe" d="M 96.941406 171.214844 C 96.941406 172.261719 97.238281 173.007812 97.835938 173.382812 C 98.4375 173.679688 99.257812 173.605469 100.15625 173.082031 C 102.324219 171.8125 104.191406 168.601562 104.191406 166.136719 C 104.191406 165.089844 103.894531 164.34375 103.296875 163.96875 C 103.070312 163.820312 102.847656 163.820312 102.546875 163.820312 C 102.097656 163.820312 101.5 163.96875 100.976562 164.34375 C 98.808594 165.539062 96.941406 168.675781 96.941406 171.214844 Z M 96.941406 171.214844 " fill-opacity="1" fill-rule="nonzero"/><path fill="#a6a6a6" d="M 218.660156 212.898438 L 109.351562 275.945312 L 109.351562 196.316406 L 218.660156 133.265625 Z M 218.660156 212.898438 " fill-opacity="1" fill-rule="nonzero"/><path fill="#737373" d="M 296.71875 121.390625 L 229.800781 160.011719 L 229.800781 126.84375 L 296.71875 88.222656 Z M 296.71875 131.773438 L 229.800781 170.394531 L 229.800781 206.546875 L 296.71875 167.929688 Z M 296.71875 131.773438 " fill-opacity="1" fill-rule="nonzero"/><path fill="#000000" d="M 219.558594 213.347656 L 219.558594 131.773438 L 108.976562 195.566406 L 108.53125 195.792969 L 108.53125 277.367188 L 219.109375 213.644531 Z M 217.839844 212.375 L 110.25 274.453125 L 110.25 196.835938 L 217.839844 134.761719 Z M 217.839844 212.375 " fill-opacity="1" fill-rule="nonzero"/><path fill="#000000" d="M 229.351562 126.09375 L 228.90625 126.320312 L 228.90625 161.429688 L 297.09375 122.136719 L 297.542969 121.914062 L 297.542969 86.804688 Z M 295.820312 120.941406 L 230.625 158.515625 L 230.625 127.367188 L 295.820312 89.789062 Z M 295.820312 120.941406 " fill-opacity="1" fill-rule="nonzero"/><path fill="#000000" d="M 228.90625 169.871094 L 228.90625 207.96875 L 297.09375 168.675781 L 297.542969 168.449219 L 297.542969 130.355469 L 229.351562 169.644531 Z M 230.625 170.839844 L 295.820312 133.265625 L 295.820312 167.40625 L 230.625 204.980469 Z M 230.625 170.839844 " fill-opacity="1" fill-rule="nonzero"/><path fill="#000000" d="M 109.351562 298.058594 L 239.445312 222.984375 L 239.445312 218.425781 L 109.351562 293.425781 Z M 109.351562 298.058594 " fill-opacity="1" fill-rule="nonzero"/><path fill="#000000" d="M 109.351562 321.664062 L 239.445312 246.589844 L 239.445312 242.03125 L 109.351562 317.105469 Z M 109.351562 321.664062 " fill-opacity="1" fill-rule="nonzero"/><path fill="#000000" d="M 109.351562 333.464844 L 239.445312 258.464844 L 239.445312 253.835938 L 109.351562 328.910156 Z M 109.351562 333.464844 " fill-opacity="1" fill-rule="nonzero"/><path fill="#000000" d="M 109.351562 309.859375 L 239.445312 234.785156 L 239.445312 230.230469 L 109.351562 305.304688 Z M 109.351562 309.859375 " fill-opacity="1" fill-rule="nonzero"/></svg>